<?xml version="1.0" encoding="UTF-8"?>
<svg id="Layer_1" xmlns="http://www.w3.org/2000/svg" version="1.1" viewBox="0 0 155 77.22">
  <!-- Generator: Adobe Illustrator 29.3.1, SVG Export Plug-In . SVG Version: 2.1.0 Build 151)  -->
  <defs>
    <style>
      .st0 {
        fill: none;
      }

      .st1 {
        fill: #fff;
      }
    </style>
  </defs>
  <path class="st1" d="M52,.13v76h-15v-17l-14.02.48-5.98,16.52H0L29,.13h23ZM38,44.63v-23.5l-4.49,9.01-5.53,15.47c.05.81,9.3,1.32,10.01-.99Z"/>
  <path class="st1" d="M155,27.13l-5.53-5.97c-18.14-13.68-40.51-1.29-38.51,21.51,1.56,17.77,25.31,25.85,38.51,14.43l5.53-5.97v18.5c-14.68,11.44-35.51,9.7-48.54-3.53-.93-2.07,1.32-6.29,1.58-9.42.78-9.46-2.57-17.9-12.03-20.56,2.85-3.85,7.29-7.05,8.53-11.96,1.71-6.84-1.93-9.78,4.55-15.45,12.77-11.17,32.74-11.66,45.92-1.08v19.5Z"/>
  <path class="st1" d="M66,63.13v-19.5l1.46-1.26c6.65,1.54,12.83-.95,19.82.98,10.92,3.01,7.05,19.78,1.22,19.78h-22.5Z"/>
  <path class="st1" d="M66,30.13V12.13h19.5c.29,0,4.57,2.47,4.96,3.04,3.34,4.92.14,14.96-5.96,14.96h-18.5Z"/>
  <path class="st0" d="M38,44.63c-.71,2.31-9.96,1.79-10.01.99l5.53-15.47,4.49-9.01v23.5Z"/>
</svg>