<?xml version="1.0" encoding="UTF-8"?>
<svg id="Layer_1" data-name="Layer 1" xmlns="http://www.w3.org/2000/svg" viewBox="0 0 1843.49 408.96">
  <defs>
    <style>
      .cls-1 {
        fill: #fff;
      }
    </style>
  </defs>
  <path class="cls-1" d="M874.11,0c6.19,2.36,12.2,4.75,18,7.18,8.05,3.14,16.14,6.73,23.89,10.75,56.6,27.42,88.6,58.56,88.6,91.58,0,45.7-61.28,87.8-164.28,121.42h1003.16L874.11,0h0Z"/>
  <path class="cls-1" d="M786.92,224.58c99.41-34.21,182.3-76.13,182.3-121.42,0-27.77-54.55-62.29-61.72-67.19,9.64,8.29,28.83,19.27,29.93,36.75,4.06,64.19-287.25,87.51-287.25,87.51L0,224.58h786.92Z"/>
  <polygon class="cls-1" points="38.86 290.26 38.86 314.66 81.66 314.66 81.66 346.8 38.86 346.8 38.86 371.98 83.98 371.98 83.98 404.13 .91 404.13 .91 258.12 83.98 258.12 83.98 290.26 38.86 290.26 38.86 290.26"/>
  <polygon class="cls-1" points="103.9 258.12 150.57 258.12 172.84 295.87 195.11 258.12 241.78 258.12 195.11 326.09 249.14 404.13 203.44 404.13 172.84 356.49 139.34 404.13 93.45 404.13 150.57 326.09 103.9 258.12 103.9 258.12"/>
  <polygon class="cls-1" points="318.24 404.13 280.28 404.13 280.28 290.26 248.92 290.26 248.92 258.12 349.61 258.12 349.61 290.26 318.24 290.26 318.24 404.13 318.24 404.13"/>
  <path class="cls-1" d="M401.3,323.57h3.68c12.39,0,26.34-2.33,26.34-18.2s-13.94-18.2-26.34-18.2h-3.68v36.4h0ZM484.76,404.13h-47.25l-35.82-56.16h-.39v56.16h-37.96v-146.01h56.74c28.85,0,50.74,13.75,50.74,44.92,0,20.14-11.23,37.57-31.95,41.25l45.89,59.84h0Z"/>
  <polygon class="cls-1" points="532.95 290.26 532.95 314.66 575.74 314.66 575.74 346.8 532.95 346.8 532.95 371.98 578.07 371.98 578.07 404.13 494.99 404.13 494.99 258.12 578.07 258.12 578.07 290.26 532.95 290.26 532.95 290.26"/>
  <polygon class="cls-1" points="617.54 258.12 654.92 258.12 684.55 336.16 715.92 258.12 753.68 258.12 775.76 404.13 737.8 404.13 727.15 320.09 726.76 320.09 691.71 404.13 676.61 404.13 643.11 320.09 642.72 320.09 630.52 404.13 592.76 404.13 617.54 258.12 617.54 258.12"/>
  <polygon class="cls-1" points="829.74 290.26 829.74 314.66 872.54 314.66 872.54 346.8 829.74 346.8 829.74 371.98 874.86 371.98 874.86 404.13 791.79 404.13 791.79 258.12 874.86 258.12 874.86 290.26 829.74 290.26 829.74 290.26"/>
  <path class="cls-1" d="M1069.05,307.11c-7.75-10.46-20.34-16.08-33.3-16.08-23.24,0-38.93,17.81-38.93,40.48s15.88,39.69,39.5,39.69c12.39,0,24.79-6,32.73-15.49v45.5c-12.59,3.88-21.69,6.78-33.49,6.78-20.34,0-39.7-7.74-54.81-21.49-16.07-14.53-23.43-33.5-23.43-55.19,0-19.95,7.56-39.12,21.5-53.45,14.32-14.72,35.05-23.63,55.58-23.63,12.2,0,23.43,2.71,34.66,7.36v45.51h0Z"/>
  <path class="cls-1" d="M1156.17,303.24h-.39l-15.69,46.47h31.56l-15.49-46.47h0ZM1129.64,378.76l-10.07,25.37h-40.28l56.16-146.01h41.44l55,146.01h-40.47l-9.48-25.37h-52.3Z"/>
  <polygon class="cls-1" points="1243.66 258.12 1281.62 258.12 1351.14 347.39 1351.53 347.39 1351.53 258.12 1389.48 258.12 1389.48 404.13 1351.53 404.13 1282.01 314.66 1281.62 314.66 1281.62 404.13 1243.66 404.13 1243.66 258.12 1243.66 258.12"/>
  <path class="cls-1" d="M1446.38,328.6c0,25.18,18.6,43.57,41.25,43.57s41.25-18.4,41.25-43.57c0-20.14-18.58-38.54-41.25-38.54s-41.25,18.4-41.25,38.54h0ZM1568.38,328.41c0,47.26-33.88,80.56-80.75,80.56s-80.75-33.3-80.75-80.56c0-44.15,38.73-75.13,80.75-75.13s80.75,30.98,80.75,75.13h0Z"/>
  <path class="cls-1" d="M1623.92,325.12h6.39c13.75,0,27.31,0,27.31-17.81s-12.59-18.59-27.31-18.59h-6.39v36.4h0ZM1585.96,258.12h58.1c31.37,0,53.05,14.52,53.05,48.02s-18.58,49.58-51.7,49.58h-21.5v48.41h-37.96v-146.01h0Z"/>
  <polygon class="cls-1" points="1697.87 258.12 1743.37 258.12 1770.68 297.82 1797.98 258.12 1843.49 258.12 1789.66 334.03 1789.66 404.13 1751.7 404.13 1751.7 334.03 1697.87 258.12 1697.87 258.12"/>
</svg>