<?xml version="1.0" encoding="UTF-8"?>
<svg id="Layer_1" xmlns="http://www.w3.org/2000/svg" version="1.1" viewBox="0 0 233.4 71.7">
  <!-- Generator: Adobe Illustrator 29.3.1, SVG Export Plug-In . SVG Version: 2.1.0 Build 151)  -->
  <defs>
    <style>
      .st0 {
        fill: none;
      }

      .st1 {
        fill: #fff;
      }
    </style>
  </defs>
  <path class="st1" d="M233.4,0c-1.5,4.2-2.9,8.3-4.3,12.2-4.4.9-203.7.1-209.6-.8.7-4.1,2.1-7.8,3.9-11.5h210Z"/>
  <path class="st1" d="M214.1,60.1c-1.3,4.1-2.6,7.9-3.8,11.6H0c1.5-4.2,2.8-7.8,4.1-11.6h210.1,0Z"/>
  <path class="st1" d="M91.3,17.2h26.7c.9.5,2.3,1.4,4,2.4.2-.7.4-1.3.6-2,3.6-.8,46.3-1.1,55.5-.4.9,3.3-1,5.9-2.1,8.8h-52.3v3.7h7.4c.6,8.3-3.3,18.1-5.1,26.1-7.1,0-14.2.1-21.3.1-4-4.7-5.5-10.6-9-15.9-1.4,5.3-2.7,10.3-4,15.5h-11.2c2.4-8.6,4.7-16.9,7.2-25.7,8.2,0,16.2-.7,24.5-1.4-1.3-5-18.2-2.6-22.5-2.6-.8-3.4.9-5.9,1.6-8.8h0ZM118.1,37.5c-3.3,1-6.4,2.1-9.8,3.2,2.2,3.8,4.2,7.5,6.6,11.7,1.2-5.4,2.2-10.1,3.3-14.8h0Z"/>
  <path class="st1" d="M78.2,55.8h-35.6c.5-5.4,3.4-10,3.8-15.4-7-1.5-15.4-.4-22.5-.4-1.6,5.4-3.2,10.5-4.8,15.8-4.2,0-8.3.4-12.8-.3,2.5-8.6,5-16.9,7.5-25.3h49.9c-1.4,5.3-2.7,10.3-4.1,15.6h7.9c1.5-5.1,3-10.2,4.6-15.5h13.6c-2.8,8.7-4.5,17.3-7.5,25.6h0Z"/>
  <path class="st1" d="M169.7,55.7c3.6-13,7.2-25.8,10.8-38.6h14.5c1.5,4-2.9,13-4,17.3,6.3-5.8,12.7-11.4,18.9-17.3h17.7c-6.4,7.3-14.1,12.3-19.7,19.2,2.2,6.4,4.4,12.7,6.8,19.6-5.6.3-10.7.3-15.8,0-2.7-6.6-5.4-13-8.3-20-2,6.8-3.9,13.2-5.9,19.8h-15Z"/>
  <path class="st1" d="M150.4,29.7c-1.1,3.5-5.4,3.8-6.7,7.3,1,2.9,2,6.2,3.3,9.9h23.6c-.9,3.3-1.7,6.1-2.5,9.2h-33.1c-5.1-10.3-3.9-15.1-1.4-26.4h16.8Z"/>
  <path class="st1" d="M67.5,17.7c-.8,2.6-1.6,5.3-2.5,8.1H15.6c-.5-3.3,1-5.9,2.1-8.4,7.9-.7,45.7-.5,49.8.3h0Z"/>
  <path class="st1" d="M75.7,17.3h13.8c-1,3-1.8,5.6-2.8,8.4h-13.1c-.3-3.2,1.7-5.6,2.1-8.4Z"/>
  <path class="st0" d="M118.1,37.5c-1,4.7-2.1,9.4-3.3,14.8-2.4-4.2-4.4-7.8-6.6-11.7,3.4-1.1,6.6-2.1,9.8-3.2h0Z"/>
</svg>