<?xml version="1.0" encoding="UTF-8"?>
<svg id="Layer_1" xmlns="http://www.w3.org/2000/svg" version="1.1" viewBox="0 0 112.6 52.5">
  <!-- Generator: Adobe Illustrator 29.3.1, SVG Export Plug-In . SVG Version: 2.1.0 Build 151)  -->
  <defs>
    <style>
      .st0 {
        fill: none;
      }

      .st1 {
        fill: #fff;
      }
    </style>
  </defs>
  <path class="st0" d="M110.7,20.6c0,10.6-8.6,19.1-19.2,19.1s-19.2-8.5-19.2-19.1S80.9,1.5,91.5,1.5s19.2,8.6,19.2,19.1ZM110.4,20.6c0-10.4-8.4-18.8-18.8-18.8s-18.8,8.4-18.8,18.8,8.4,18.8,18.8,18.8,18.8-8.4,18.8-18.8Z"/>
  <path class="st1" d="M110.4,20.6c0,10.4-8.4,18.8-18.8,18.8s-18.8-8.4-18.8-18.8S81.1,1.8,91.5,1.8s18.8,8.4,18.8,18.8ZM108.7,20.6c0-9.5-7.7-17.2-17.2-17.2s-17.2,7.7-17.2,17.2,7.7,17.2,17.2,17.2,17.2-7.7,17.2-17.2Z"/>
  <ellipse class="st0" cx="91.5" cy="20.6" rx="17.2" ry="17.2"/>
  <path class="st1" d="M.1,11.7s-.1-.1,0-.2L11.1.6h13.6c5.6.8,10.1,4.9,11.6,10.3L46.9.5h12.8c9,1.3,11.8,6.6,11,15.1,0,.1-.1.4,0,.4,1.9-8.6,9.6-15,18.3-15.9,15.2-1.6,27.4,12.7,22.3,27.4-4.6,13-21,17.8-32.2,10-6.8-4.7-10.1-12.9-8.5-21l-.7,1.8c-.6,1.3-1.4,2.6-2.4,3.7-.2.3-1.4,1.2-1.4,1.4l4.4,4.4v13.1l-21.1-21.3h6.3c1.4,0,3.3-1.7,3.7-3,.6-1.7.2-4.1-1.5-5.1-.2,0-1.1-.5-1.2-.5h-9.9v29.6c.1,0-10.9,0-10.9,0v-19.5l-1.7,2.9c-2.1,2.9-5.1,5.1-8.6,6-3.8,1-8,.3-11.9.5v-9.8c1.6-.1,3.3,0,5-.1,2.9-.2,5-1.5,5.1-4.6,0-1.9-1.6-5.1-3.8-5.1h-9.1v29.9H0c0,0,.1-.1.1-.2V11.7ZM110.7,20.6c0-10.6-8.6-19.1-19.2-19.1s-19.2,8.6-19.2,19.1,8.6,19.1,19.2,19.1,19.2-8.5,19.2-19.1Z"/>
  <path class="st1" d="M91.5,3.7c-9.3,0-16.9,7.6-16.9,16.9s7.6,16.9,16.9,16.9,16.9-7.6,16.9-16.9-7.6-16.9-16.9-16.9ZM91.5,29.4c-4.9,0-8.9-4-8.9-8.8s4-8.8,8.9-8.8,8.9,4,8.9,8.8-4,8.8-8.9,8.8Z"/>
  <g>
    <path class="st1" d="M42.4,52.5v-6.5c-.1,0,1.1,0,1.1,0v.5c1.2-1.3,3.1-.6,3.4,1s-1.2,4.2-3.4,2.5v2.4h-1.1ZM44.2,46.8c-.9.3-1,2.6,0,2.9,1.8.6,1.9-3.5,0-2.9Z"/>
    <path class="st1" d="M11.2,52.5v-6.5c-.1,0,1.1,0,1.1,0v.5c3.1-2.9,4.9,3.5,1.9,4.1s-1.1-.2-1.9-.5v2.3h-1.1ZM13.2,46.8c-1.2.2-1.2,3.1.4,3s1.3-3.3-.4-3Z"/>
    <path class="st1" d="M31.9,46.8c-.1.1-.8.5-.8.5l1.2,1.3c.3-.4.4-.9.3-1.4h1.1c.1.8-.3,1.4-.7,2.1l1,1.3c-.8,0-1.5.3-1.8-.5-2.4,2-5.9-1-2.8-2.9,0-.2-1.8-1.5,0-2.6s4.1.6,2.6,2.2ZM30.4,45.1c-.3,0-.6.3-.7.6l.6,1c1-.2,1.2-1.8,0-1.6ZM30.3,47.9c-1,0-1.4,1.4-.4,1.8s1,0,1.6-.2l-1.2-1.6Z"/>
    <path class="st1" d="M40.9,44.4v1.1c-1.1-.8-3.3.2-2,1.1s2.4.5,2.4,2.2-2.6,2.2-4.1,1.7v-1.1c1,.4,2.4.7,2.7-.5,0-.7-1.2-.9-1.7-1.2-.8-.5-1.1-.8-1-1.8.1-1.9,2.2-1.9,3.7-1.5Z"/>
    <path class="st1" d="M51.9,48.7h-3.1c0,1.1,1,1.2,1.9,1.1s.6-.3.9-.4c.3,1.3-1.1,1.5-2.1,1.3-3.2-.4-2.4-5.8,1.1-4.7s1.4,1.7,1.3,2.7ZM50.5,47c-.7-.7-1.9,0-1.7.9.4-.1,2.1.3,2-.4s-.2-.4-.2-.5Z"/>
    <path class="st1" d="M20.7,48.7h-3.1c0,1.5,1.9,1.2,2.8.7.3,1.3-1.1,1.5-2.1,1.3-2.9-.4-2.6-4.8.2-4.8s2.2,1.4,2.1,2.9ZM17.6,47.9c.4,0,2,.2,2-.2s-.3-.7-.4-.8c-.7-.5-1.8.1-1.6,1Z"/>
    <path class="st1" d="M10,50.6h-1.1s0-.5,0-.5c-1.1,1.5-3.8.3-2.8-1.5s2-.8,2.9-.8c-.2-1.5-1.6-1.1-2.6-.5v-1.1c1-.3,2.6-.7,3.3.4s.3.8.3.9v3.2ZM8.9,48.4c-.7-.1-2.3,0-1.8,1.1s2.1,0,1.8-1.1Z"/>
    <path class="st1" d="M73.8,48.7c.2,1.5,1.8,1.3,2.8.7v1.1c-2.4.8-4.3-.1-3.9-2.9s2.9-2.4,3.9-.8.7,1.9.2,1.9h-3.1ZM75.9,47.9c0-1.6-1.9-1.5-2,0h2Z"/>
    <path class="st1" d="M63.3,50.6h-1.1s0-.5,0-.5c-1.1,1.5-3.8.3-2.8-1.5s2-.8,2.9-.8c-.1-1.5-1.7-1.1-2.6-.5v-1.1c1-.2,2.5-.7,3.3.3s.4.7.4.8v3.3ZM62.2,48.4c-.5,0-1.8,0-1.9.6-.2,1.3,2.1.7,1.9-.6Z"/>
    <path class="st1" d="M6.4,45.3h-1.9v5.3h-1.2v-5.3h-1.8s0-1.1,0-1.1c1.5.2,3.2.2,4.7,0l.2.2v.9Z"/>
    <path class="st1" d="M80.9,46v.9c-.7-.2-1.6-.5-1.9.2,0,.7,1.5.6,1.9,1.2,1.2,1.7-1.5,2.9-3,2.2-.2-.2-.2-.9,0-1,.5.4,1.8.5,1.8-.3,0-.6-1.9-.4-2.1-1.6-.2-1.8,1.8-1.9,3.1-1.6Z"/>
    <path class="st1" d="M24.5,46v.9c-.7-.2-1.5-.6-1.9.3,0,.6,2.3.4,2.1,2s-2.1,1.5-3.3,1.3v-1.1c.5.4,2,.5,2-.2s-1.5-.6-2-1.3c-1.1-1.7,1.6-2.7,2.9-2Z"/>
    <path class="st1" d="M67.3,46.8h-.8s-.1-.8-.1-.8h.9c-.2-1.1.3-1.1,1.1-1.4v1.4c0,0,1.2,0,1.2,0v.8s-1.1,0-1.1,0v2.5c0,.4.7.6,1.1.3v.9c-.6.4-2.3,0-2.3-1v-2.8Z"/>
    <path class="st1" d="M55.9,46v.9c-2.9-1-2.8,3.8.2,2.7v.9c-4.6,1.3-4.7-5.9-.2-4.6Z"/>
    <rect class="st1" x="64.5" y="43.8" width="1.2" height="6.8"/>
    <rect class="st1" x="70.4" y="46" width="1.2" height="4.6"/>
    <rect class="st1" x="56.9" y="46" width="1.2" height="4.6"/>
    <rect class="st1" x="56.9" y="44" width="1.2" height="1.1"/>
    <rect class="st1" x="70.4" y="44" width="1.2" height="1.1"/>
    <path class="st0" d="M44.2,46.8c1.9-.6,1.8,3.5,0,2.9s-.9-2.6,0-2.9Z"/>
    <path class="st0" d="M13.2,46.8c1.6-.3,1.6,2.8.4,3s-1.6-2.7-.4-3Z"/>
    <path class="st0" d="M30.3,47.9l1.2,1.6c-.6.2-1,.4-1.6.2-1-.4-.6-1.8.4-1.8Z"/>
    <path class="st0" d="M30.4,45.1c1.1-.2,1,1.3,0,1.6l-.6-1c0-.3.4-.5.7-.6Z"/>
    <path class="st0" d="M50.5,47c0,0,.2.4.2.5.2.7-1.5.3-2,.4-.2-1,1-1.6,1.7-.9Z"/>
    <path class="st0" d="M17.6,47.9c-.2-.9.9-1.5,1.6-1s.4.7.4.8c0,.4-1.7.1-2,.2Z"/>
    <path class="st0" d="M8.9,48.4c.2,1-1.4,1.9-1.8,1.1s1.2-1.2,1.8-1.1Z"/>
    <path class="st0" d="M75.9,47.9h-2c.1-1.5,2.1-1.6,2,0Z"/>
    <path class="st0" d="M62.2,48.4c.3,1.4-2,2-1.9.6s1.3-.7,1.9-.6Z"/>
  </g>
</svg>