<?xml version="1.0" encoding="UTF-8"?>
<svg id="Layer_1" xmlns="http://www.w3.org/2000/svg" xmlns:xlink="http://www.w3.org/1999/xlink" version="1.1" viewBox="0 0 1349.1 1202.9">
  <!-- Generator: Adobe Illustrator 29.3.1, SVG Export Plug-In . SVG Version: 2.1.0 Build 151)  -->
  <defs>
    <style>
      .st0 {
        fill: none;
      }

      .st1 {
        fill: #4354ff;
      }

      .st2 {
        fill: #4052ff;
      }

      .st3 {
        fill: #fff;
      }

      .st4 {
        fill: #4051ff;
      }

      .st5 {
        fill: #45f;
      }
    </style>
  </defs>
  <path class="st0" d="M56.7,850.5c-23.5-31.9-22.3-66.6-12.6-102.6h1280.2v104.9h-79.6v81h72.1v105.9h32.2v163.2H0v-162.9h25v-105h5.7c25.8,0,51.7,0,77.5-.1,3.6,0,7.3-1.4,10.9-2.2-1.4-3.7-2-8.1-4.4-11.1-12.7-15.8-26-31.2-38.9-46.9-6.5-7.8-12.6-15.9-19.1-24.2M222.4,923.2c-.2-.5-.6-1-.7-1.5-2.8-10-4.6-20.4-8.5-30-7.4-18.4-20.2-33.4-32.9-48.4-11.4-13.5-22.8-26.9-34-40.5-6-7.3-7.5-15.7-5.1-24.9,1.3-5.2,2.3-10.5,3.4-15.9H55.3c-.5,2.7-1.1,5.3-1.5,7.9-2,13.2-3.8,26.3-.8,39.6,4.2,18.6,14.5,33.7,26.4,48,15.1,18.2,30.5,36.1,45.4,54.5,3.6,4.4,6.2,9.9,8,15.3,2.8,8.5-1.9,17.1-10.5,19.8-4.4,1.3-9.1,1.9-13.7,2-21.3.2-42.7,0-64,0h-5.4v77.3h5.4c24.7,0,49.3.2,74,0,8.3,0,16.6-.8,24.8-2.1,44.2-7.1,72.5-36.5,78.2-80.7,0-.6.9-1,1.1-.7.2,3.3.4,6.6.7,9.9,1.2,15.1,4.7,29.4,13.3,42.2,14.9,22.3,37.1,30.8,62.5,31.1,44.7.7,89.3.3,134,.3.8,0,1.5-.2,2.2-.3v-264h-86.1v186.9c-9.5,0-18.5.2-27.5,0-9.4-.2-11.8-2.6-12.3-11.9-.4-6.3-.7-12.6-.7-18.9,0-50.3,0-100.7,0-151,0-1.7,0-3.5,0-5h-86c0,2.1,0,3.9,0,5.7,0,49.2,0,98.3,0,147.5,0,2.6.2,5.3-.3,8M237.9,1186.9h34.3c-2.6-8.6-5.2-17-8.2-26.6,16.7,20.5,35.5,26.5,60,26.6,20,0,40,0,60,0,1.4,0,2.9-.1,4.7-.2v-42.5h27.7v42.4h243.5v-132.4h-95.8v17.6c-4.7-4-9.1-8.6-14.3-11.9-8.4-5.3-18.2-5.9-27.9-6-33.7,0-67.3,0-101,0-1.4,0-2.9.2-4.7.3v43.1h-27.9v-43.3c-24.5,0-48.7-.7-72.8.2-31.5,1.2-53.9,19.9-61.6,50.1-1.2,4.6-1.6,9.4-2.6,15.2-.5-1.6-.7-2.2-.9-2.7-6.2-19.7-12.4-39.5-18.8-59.2-.5-1.4-2.3-3.5-3.5-3.5-17.1-.2-34.3-.2-51.9-.2,5.2,14.7,10.3,29,15.5,43.8-6.2,0-11.9.3-17.5,0-4.5-.3-6.7.8-8,5.6-2.2,8.5-5.4,16.7-8.2,25-.9-9.2-.7-18.2-.9-27.2-.2-11.1-1.6-21.8-8.4-31.2-9.1-12.5-22.3-15.7-36.5-15.8-31.8-.2-63.7-.1-95.5-.1-.9,0-1.9.2-2.6.3v132.7h223.8M1325.9,1186.9h9.6v-46.1c-2,0-3.8,0-5.6,0-19.5,0-39,0-58.5-.2-6.4,0-12.6-1.4-17-6.8-5.4-6.7-6.5-14-3.2-21.9,3.4-8.2,10.1-11.6,18.6-11.9,7.8-.2,15.6,0,23.3,0v-46.1c-10.4,0-20.4-.4-30.4,0-24.3,1.1-43.5,11-55.8,32.6-.4.7-1.1,1.3-2,2.3-1.4-9.9-5.3-18-12.3-24.4-9.7-8.8-21.6-10.6-33.9-10.6-34.2-.2-68.3,0-102.5,0-1.3,0-2.5.2-3.6.3v132.6h153.2v-34c15.2,26.4,38.2,34.5,65.6,34.3,17.8-.2,35.7,0,54.5,0M733.4,1017.4c0-53.8.2-107.6-.1-161.4,0-11.2-.8-22.7-3-33.7-5.5-27.6-20.8-48-48.7-55.6-13.6-3.7-28.2-4.7-42.4-4.8-62.8-.5-125.6-.2-188.4-.2-1.4,0-2.9.2-4.2.2v264h86.1v-186.9c33.5,0,66.5,0,99.5,0,2.1,0,4.3.5,6.4.9,4.8.9,7.6,3.8,8,8.8.3,4.1.7,8.3.7,12.4,0,53.1,0,106.3,0,159.4v5.4h86.3v-8.6M829.7,1016.4v-177.4c33.1,0,65.5,0,97.8,0,14,0,17,3,17,17,0,54.8,0,109.7,0,164.5,0,1.8,0,3.6,0,5.2h86.1c0-.9.1-1.4.1-1.9,0-58,.2-116-.1-174,0-10.1-1-20.4-3.3-30.2-6.1-26.5-21.4-46-48.3-53.1-13.8-3.6-28.6-4.7-42.9-4.8-62.3-.5-124.7-.2-187-.2h-5.4v264.1h86c0-3.1,0-5.7,0-9.4M854.7,1188.9c28.8-2.6,47.6-18.2,58.6-44.3v42.1h45.5v-46h-45.4c7.1-36.1-4-65.3-30.1-79.8-15.7-8.8-32.5-11.2-50.1-7.9-17.7,3.3-31.6,12.9-43,28.6v-27.7c-10.4,0-20.2-.4-30,.1-7.1.4-14.3,1.4-21,3.6-25.3,8.5-39.1,27.1-43.3,52.8-5,30.4,11.8,61.4,40.5,71.7,17.6,6.3,35.7,4.4,54.2,4.7v-25.5c5.6,5.2,10.8,10.9,16.8,15.4,13.7,10.1,29.6,13,47.2,12.1M1278.9,1026.1h24v-78.3c-4.7,0-9.1,0-13.6,0-15.5,0-31,0-46.5-.1-8.6-.1-10.5-1.9-11.5-10.3-.5-3.8-.8-7.6-.8-11.4,0-16.3,0-32.6,0-49s0-13.9,0-20.8h-86c0,.8-.1,1.3-.1,1.8,0,26-.6,52,.3,77.9.4,13.5,1.9,27.3,5.6,40.3,8.4,29.4,36.4,48.9,69.2,49.6,19.5.4,39,.2,59.4.3M928.1,877.4v-21.3h-81.4v169.8h81.4v-148.5M1225.9,839h84.5v-77h-177.5v77h93M1041.3,873.4v152.6h85.8v-169.8h-85.8v17.2M630.5,1018.4v-162.1h-81v169.7h81v-7.6M1127.4,777.4v-15.4h-85.9v76.6h85.9v-61.2M978.9,1140.8h-15v58.8h29.6c6.7-19.5,13.3-38.9,20.2-58.8h-34.8Z"/>
  <path class="st0" d="M250.4,533.9v-69.9h5.7c63.5,0,127,0,190.5,0,7.1,0,14.3-.7,21.3-2.3,15.4-3.4,21.5-14.3,17.1-29.5-3.1-10.8-9.1-20-16.1-28.5-26.6-31.8-53.2-63.5-80.1-95.1-25.8-30.3-52.3-60.1-73.2-94.1-18.5-30-29.9-62.6-33.7-97.6-2.1-19.2,0-38.2,3.1-57.2,3-18.3,6.5-36.6,9.4-55,.6-4.2,2.4-4.6,5.8-4.6,82,0,164,0,246,0,108.3,0,216.6-.2,324.9-.1,28.5,0,57,.9,84.7,8.1,43.5,11.2,72.6,39.4,90.5,79.8,9.3,20.9,12.3,43.3,13.5,66,.3,7,.7,14,.7,21,0,171.5,0,343,0,514.4v6.3H250.4v-161.7M455.6,352.2c8.6,10.6,17.4,21,25.9,31.7,9.3,11.7,18.2,23.7,23.3,38.1,10.1,28.1-2.2,53.5-30,60.6-8.4,2.2-17.4,3.2-26.1,3.2-57,.3-114,.1-171,.1s-3.5,0-5,0v188.1h2.3c63.3,0,126.7,0,190,0,33.7,0,67-3.6,99.5-13.1,44.7-13.2,82.9-36.4,111.9-73.4,5.4-6.9,10.3-14.2,15.6-21.6.5,1.6,1,3,1.3,4.3,7.5,29.9,23.6,54.3,48,73.2,28.6,22.1,62,30,97.2,30.4,65,.7,130,.2,195,.3,1.6,0,3.2,0,5,0v-4c0-166.2,0-332.3,0-498.5,0-19.8-1.4-39.6-6.9-58.8-11.3-39.4-35.1-68-74.5-81.3-24.2-8.1-49.7-9-75-9.1-99.5-.3-199-.1-298.5-.1-1.8,0-3.5,0-5.9,0v149.7c-.5.2-1,.5-1.5.7-12.9-16-26.1-31.8-38.7-47.9-15.5-19.8-21.3-41.5-13.3-66.3,3.7-11.6,5.6-23.8,8.4-35.9h-218.9c-.6,3.4-1.3,6.7-1.8,9.9-2.8,18.9-6.6,37.7-8.2,56.7-3,35.4,6.7,68.4,22.6,99.7,14.7,29,35.4,53.9,56.2,78.6,24,28.3,48.5,56.2,73.1,84.9Z"/>
  <path class="st0" d="M237.4,1186.9H14.1v-132.7c.8,0,1.7-.3,2.6-.3,31.8,0,63.7-.1,95.5.1,14.2.1,27.4,3.3,36.5,15.8,6.8,9.4,8.2,20.2,8.4,31.2.2,9,0,18,.9,27.2,2.8-8.3,5.9-16.5,8.2-25,1.3-4.7,3.5-5.9,8-5.6,5.6.4,11.2,0,17.5,0-5.2-14.8-10.3-29.1-15.5-43.8,17.6,0,34.8,0,51.9.2,1.2,0,3.1,2,3.5,3.5,6.4,19.7,12.5,39.5,18.8,59.2.2.6.4,1.1.9,2.7,1-5.8,1.4-10.6,2.6-15.2,7.8-30.2,30.1-49,61.6-50.1,24.1-.9,48.3-.2,72.8-.2v43.3h27.9v-43.1c1.8-.1,3.2-.3,4.7-.3,33.7,0,67.3,0,101,0,9.7,0,19.5.6,27.9,6,5.2,3.3,9.6,7.9,14.3,11.9v-17.6h95.8v132.4h-243.5v-42.4h-27.7v42.5c-1.8,0-3.3.2-4.7.2-20,0-40,0-60,0-24.5,0-43.3-6.1-60-26.6,3,9.7,5.5,18,8.2,26.6h-34.8M347.5,1072.8c0,2,.1,4.1,0,7,0,12.8,0,25.6,0,38.4,0,17.9.2,35.9.1,54.7.1,5.4.6,5.7,8.9,4.5h22.8v-43.1h38.5c0-6.4,0-12.3.4-19.1v-8.3c-13.2,0-26,0-38.9-.9,0-11.3,0-22.7,0-34.9v-8.2c-10.1,0-19.6,0-29.2,0-3.3,0-2.8,2-2.7,4.8,0,1.4.1,2.8,0,5.1M457.2,1071.2v-8h-31.4v27.4c2.8,0,5.3,0,8.7,0h22.4c0-6.4,0-12.5.4-19.5M582.4,1090.7h68c0-6.6,0-12.7.3-19.7v-7.8h-77v27.4c2.8,0,5.3,0,8.7,0M100.2,1115.2v-7.9h-29.3v70.6c2.9-.2,5.3-.4,8.6-.6h20.3c0-20.8,0-41.1.4-62.2M457.2,1115.2v-8h-31.4v70.8c2.9-.3,5.3-.5,8.7-.6h22.3c0-21,0-41.2.4-62.2M582.5,1177.4h68c0-6.5,0-12.5.4-19.2v-8.3c-15.7,0-30.7,0-45.9-.9v-14.7h45.5c0-6.5,0-12.4.3-19.1v-7.9h-76.9v70.8c2.9-.3,5.3-.5,8.7-.6M338.2,1158.2v-8.3c-11.1,0-22.1.8-32.3-5.4-11-8.9-14.9-21.3-10.5-34.1,4.3-12.6,14.6-19.5,29.1-19.6,4.3,0,8.6,0,13.3,0,0-6.5,0-12.6.4-19.5v-8.7c-9.6.5-18.7.7-27.8,1.5-14.4,1.2-26.4,7.4-35.7,18.5-11.2,13.4-15.1,29.1-13.1,46.1,1.4,11.8,5.9,22.7,15.1,31.8,5.1,3.7,9.8,8.1,15.4,10.9,13.3,6.5,27.9,6.8,42.4,6.4,1.2,0,3.1-2.3,3.2-3.7.4-5,.1-10,.5-15.8M191.8,1149.2c3.1-11.1,6.2-22.2,9.7-33.9.8-2.6,1.5-5.3,2.4-8.4-8.9,0-17.1.2-25.2,0-3.1,0-4.3,1.1-5.2,3.8-5.2,16-10.6,32-15.9,48-2,6.2-3.9,12.4-6.1,19.4,4.2-.3,7.7-.5,12-.6h95.9c-11.2-35.6-22.1-70.5-33.1-106.2-.6-1.9-1-3.9-1.9-5.6-.6-1.1-1.8-2.5-2.8-2.5-10.6-.2-21.2-.1-32.4-.1,10.4,29.2,20.5,57.8,30.9,87.1-10,0-19.1,0-28.3-.9M554.4,1076.1c-5.1-7.6-12.5-11.7-21.3-12.1-20.6-.8-41.2-.8-61.8-1-.3,0-.5.4-.6.4v114.5c2.5-.3,4.7-.5,7.7-.6h23.2v-86.6c6.3,0,12.1,0,17.9,0,5.2.1,8.5,2.5,8.9,8.9v78.3c3.2-.3,5.6-.5,8.9-.6h22.7c0-27.7.3-54.8-.3-81.9-.1-6.3-3.6-12.5-5.5-19.4M141.9,1076.4c-1.6-1.9-3.2-3.8-4.9-5.6-7.6-7.3-17.5-7.6-27-7.7-27.5-.4-54.9-.2-82.4-.2-1.4,0-2.9.2-4.3.3v114.8c2.8-.3,5.1-.5,8.2-.6h23.1v-86.6c17.8,0,35.2,0,52.6,0,5,0,7.8,3.1,8.7,8.7v78.5c3.5-.4,5.6-.6,8.6-.7h22.9c0-26.6,0-52.5,0-78.4,0-7.7-1-15.3-5.5-22.6Z"/>
  <path class="st0" d="M733.4,1017.9v8.1h-86.3v-5.4c0-53.1,0-106.3,0-159.4,0-4.1-.4-8.3-.7-12.4-.3-5-3.1-7.9-8-8.8-2.1-.4-4.3-.9-6.4-.9-33,0-66,0-99.5,0v186.9h-86.1v-264c1.3,0,2.8-.2,4.2-.2,62.8,0,125.6-.3,188.4.2,14.2.1,28.8,1.1,42.4,4.8,27.9,7.6,43.2,27.9,48.7,55.6,2.2,11,3,22.4,3,33.7.3,53.8.1,107.6.1,161.9M706.5,793.1c-7.8-9.3-17.3-16.2-29.4-18.1-11.3-1.8-22.7-3.8-34-3.9-60.6-.4-121.3-.2-181.9-.2-1.8,0-3.5,0-5.3,0v245.8c2.5,0,4.6,0,7.7.2h59.3v-187.4c2.3,0,4.1,0,5.9,0,27.8,0,55.6,0,83.4,0,8,0,16,0,23.9.5,8.3.5,15.2,3.6,18.6,12.7.6,4.6,1.8,9.2,1.8,13.8.1,51.5,0,103,0,154.4s0,3.9,0,5.9c2.8,0,4.9,0,8,.1h59.5v-3.5c0-51.3,0-102.5,0-153.8,0-9.3-.5-18.6-1.6-27.9-1.6-14-5.6-27.3-15.8-38.6Z"/>
  <path class="st0" d="M829.7,1016.9c0,3.2,0,5.8,0,8.9h-86v-264.1h5.4c62.3,0,124.7-.3,187,.2,14.4.1,29.1,1.2,42.9,4.8,26.9,7.1,42.2,26.6,48.3,53.1,2.3,9.8,3.2,20.1,3.3,30.2.3,58,.1,116,.1,174,0,.5,0,1-.1,1.9h-86.1c0-1.7,0-3.5,0-5.2,0-54.8,0-109.7,0-164.5,0-14-2.9-17-17-17-32.3,0-64.6,0-97.8,0v177.9M962.4,1016.9h59v-6c0-51.5.1-102.9,0-154.4,0-9.6-.7-19.3-2.1-28.8-1.8-13-6.4-25.1-16-35.4-6.7-7.7-14.6-14.2-24.6-16.2-12.6-2.5-25.5-4.8-38.3-5-60.6-.5-121.3-.2-181.9-.2h-5.3v245.9c2.7,0,5,0,8.2.1h59.1v-187c.7-.2,1-.4,1.3-.4,36.9.1,73.9.2,110.8.4,9.1,0,16.3,3.9,19.8,13.7.4,5.6,1.3,11.2,1.3,16.8,0,50.1,0,100.3,0,150.4v5.9c3.1,0,5.4,0,8.6.1Z"/>
  <path class="st0" d="M223,923c-.1-2.6-.3-5.3-.3-7.9,0-49.2,0-98.3,0-147.5,0-1.8,0-3.6,0-5.7h86c0,1.5,0,3.3,0,5,0,50.3,0,100.7,0,151,0,6.3.3,12.6.7,18.9.6,9.3,2.9,11.6,12.3,11.9,9,.2,18,0,27.5,0v-186.9h86.1v264c-.7,0-1.5.3-2.2.3-44.7,0-89.3.3-134-.3-25.4-.4-47.6-8.8-62.5-31.1-8.6-12.8-12-27.2-13.3-42.2-.3-3.3-.5-6.6-.4-10.8.2-6.8.2-12.7,0-18.6M250.9,997.3c5.7,4.2,11.1,9.2,17.3,12.4,10.8,5.5,23,6.9,35,6.9,40.3.3,80.6.2,120.9.2.6,0,1.2-.2,2.1-.4v-5.6c0-37.7,0-75.3,0-113,0-39.3,0-78.6.1-118.8v-7.8h-68v187.7c-16.7-1-32.8-2.1-49.3-3.6-5.3-2.9-7.9-7.5-8.6-13.2-.6-4.6-1-9.3-1-13.9-.1-49.4-.1-98.8,0-149.2v-7.8h-67.7v6.2c0,52.1-.1,104.2.1,156.4,0,10.4,1,20.9,2.6,31.2,1.9,12.1,6.9,23.1,16.3,32.3Z"/>
  <path class="st0" d="M854.2,1188.9c-17.2.8-33.1-2-46.7-12.1-6.1-4.5-11.2-10.2-16.8-15.4v25.5c-18.5-.3-36.6,1.6-54.2-4.7-28.7-10.3-45.5-41.2-40.5-71.7,4.2-25.7,18-44.4,43.3-52.8,6.7-2.2,14-3.2,21-3.6,9.8-.6,19.6-.1,30-.1v27.7c11.4-15.7,25.3-25.4,43-28.6,17.6-3.2,34.4-.8,50.1,7.9,26.1,14.6,37.2,43.7,30.1,79.8h45.4v46h-45.5v-42.1c-11,26.2-29.9,41.8-59.1,44.4M949.8,1158.2v-8h-27v27.8c2.5-.2,4.6-.4,7.7-.6h19c0-6.6,0-12.6.4-19.2M802.3,1159.6c.7.7,1.4,1.4,2.5,2.6,16,16,35.6,20.2,57,16,26.2-5.1,44-27.6,44.5-55.1.3-15.1-2.5-29.4-12.9-42-9.9-11.9-22.9-18.1-37.8-19.8-20.3-2.4-38.3,3-52.2,18.8-13.4,15.3-17.1,33.4-13.7,53,1.7,9.7,5.2,18.8,12.6,25.8,0,0-.1.1,0,.7M750.1,1145.2c-11.8-9.3-15.9-21.8-11.5-34.8,4.4-12.9,14.7-19.7,30.2-19.7,4.1,0,8.2,0,12.3,0,0-6.8,0-12.8.2-19.6v-7.7c-12.9-1.6-33.2.2-42.2,3.8-24.8,10-37.4,35.9-34.4,60.7,1.4,11.2,5.2,21.8,13.9,30.7,1.2,1.3,2.3,2.7,3.6,3.9,16.9,15.7,37.7,15.3,58.9,14.7,0-6.3,0-12.3.2-19.2v-6.4c-10.8-2.1-20.8-4-31.3-6.5Z"/>
  <path class="st0" d="M222.7,923.1c.4,5.8.5,11.7.5,18.1-.6,1-1.5,1.5-1.6,2-5.8,44.3-34.1,73.7-78.2,80.7-8.2,1.3-16.5,2-24.8,2.1-24.7.3-49.3,0-74,0h-5.4v-77.3h5.4c21.3,0,42.7.1,64,0,4.6,0,9.3-.6,13.7-2,8.6-2.6,13.3-11.2,10.5-19.8-1.8-5.4-4.5-10.9-8-15.3-14.9-18.4-30.3-36.3-45.4-54.5-11.9-14.3-22.2-29.4-26.4-48-3-13.4-1.3-26.5.8-39.6.4-2.6,1-5.2,1.5-7.9h89.3c-1.2,5.5-2.1,10.8-3.4,15.9-2.4,9.2-.9,17.6,5.1,24.9,11.2,13.6,22.6,27.1,34,40.5,12.7,15,25.5,30,32.9,48.4,3.9,9.6,5.7,20,8.5,30,.1.5.5,1,1,1.5M78.3,840.6c.7.8,1.4,1.5,2.3,2.9,18.9,23.1,37.9,46.2,56.8,70,4.3,7.6,6.5,15.7,4.4,24.4-2.9,11.9-13.7,19.8-27.2,19.9-18.7.2-37.3.1-56,.1-3.3,0-6.6,0-10,0v58.7c2.5,0,4.6,0,7.7.1,19.2,0,38.3.2,57.5,0,9.1-.1,18.3-.7,27.3-2,21.3-3.2,40.2-11.6,53.3-29.2,21.8-29.2,24-60.7,8.6-93.5-9-19-23.2-34.4-36.5-50.4-9.7-11.6-19.7-23-28.9-35-6-7.7-8.6-16.8-6.2-27.5.4-2.7.9-5.3,1.4-8.3-22.8,0-44.9,0-67,.1-1.1,0-3.1,1.6-3.1,2.6-.6,10.2-2.1,20.6-.9,30.6,1.6,13.4,7.5,25.5,16.7,35.7,0,0,0,0,0,.7Z"/>
  <path class="st0" d="M1278.4,1026.1c-20,0-39.5.2-58.9-.3-32.9-.8-60.9-20.2-69.2-49.6-3.7-12.9-5.1-26.8-5.6-40.3-.9-26-.3-52-.3-77.9,0-.5,0-1,.1-1.8h86c0,6.9,0,13.9,0,20.8,0,16.3,0,32.6,0,49,0,3.8.3,7.6.8,11.4,1.1,8.4,2.9,10.2,11.5,10.3,15.5.2,31,0,46.5.1,4.5,0,8.9,0,13.6,0v78.3h-24.5M1230.1,954.2c-4.6-2.5-6.8-6.7-7.6-11.6-.7-4.4-1.2-8.9-1.2-13.3-.2-18.4-.1-36.8,0-56.1v-7.8h-67.9v5.7c0,16.5-.4,33,.1,49.4.4,14.6,1.2,29.2,3,43.6,1.4,11.6,6.2,22.3,15.1,31.3,13.9,15.5,32.1,20.8,52,21.2,22.6.5,45.2.2,67.9.2.6,0,1.2-.3,1.9-.4,0-17,0-33.8.4-51.2v-8.3h-5.4c-13.4,0-26.9.2-40.3-.1-5.9-.1-11.7-1.4-18-2.7Z"/>
  <path class="st0" d="M928.1,877.9v148h-81.4v-169.8h81.4v21.8M918.4,873v-7.8h-62.2v151.5c2.7,0,5,0,8.2.1h53.9c0-48,0-95.5.1-143.8Z"/>
  <path class="st0" d="M1225.4,839h-92.5v-77h177.5v77h-85M1301.4,779.1v-7.9h-158.6v58.8c2.5-.3,4.7-.5,7.7-.6h150.6c0-16.8,0-33.1.2-50.3Z"/>
  <path class="st0" d="M1041.3,872.9v-16.7h85.8v169.8h-85.8v-153.1M1118.2,873.2v-7.9h-67.5v151.5c2.8,0,5.3,0,8.7,0h58.2c.2-1.1.4-1.5.4-2,0-46.9,0-93.9.3-141.6Z"/>
  <path class="st0" d="M630.5,1018.8v7.1h-81v-169.7h81v162.6M566.4,1016.9h54.4c0-48,0-95.4.4-143.6v-8h-62.5v151.5c2.5,0,4.6,0,7.7.1Z"/>
  <path class="st0" d="M1127.4,777.9v60.7h-85.9v-76.6h85.9v15.9M1059.5,829.4h58.3c0-16.9,0-33.1.4-50.2v-8h-67.4v58.8c2.9-.3,5.3-.5,8.7-.6Z"/>
  <path class="st0" d="M979.4,1140.8h34.3c-6.8,19.9-13.5,39.3-20.2,58.8h-29.6v-58.8h15.5M997.9,1158.4c.9-2.6,1.8-5.2,2.7-8.2h-26.8v40.7c2.5-.3,4.6-.5,7.5-.6,2.7,0,5.4.7,6.6-3.3,2.9-9.5,6.2-18.8,10-28.7Z"/>
  <path class="st3" d="M163,1177c32.3.4,64,.4,96.4.4-11.2-35.6-22.1-70.5-33.1-105.5h-29.3c10.4,0,19.9,0,29.3-.4-.6-2.3-1-4.3-1.9-6-.6-1.1-1.8-2.5-2.8-2.5-10.6-.2-21.2-.1-32.4-.1,10.4,29.2,20.5,57.8,30.9,87.1-10,0-19.1,0-28.5.2-1,2.8-1.7,5.3-2.5,8.1.8-2.8,1.5-5.4,2.5-8.6,3.3-11.7,6.4-22.8,9.5-33.9-5.2,0-10.3-.3-15.5,0,5.1-.3,10.3,0,15.7-.3.9-2.9,1.7-5.6,2.6-8.7-8.9,0-17.1.2-25.2,0-3.1,0-4.3,1.1-5.2,3.8-5.2,16-10.6,32-15.9,48-2,6.2-3.9,12.4-6.1,19.4,4.2-.3,7.7-.5,11-1.1,0-.7-.2-1.1,0-1.3,0,.3,0,.7.5,1.4Z"/>
  <path class="st3" d="M650.6,1071.4c.1-3,.1-5.6.1-8.3h-77v27.4c2.8,0,5.3,0,7.7-.4,0-4.8.1-9.1-.2-13.4.3,4.3.1,8.6.7,13.4,23.1.5,45.6.5,68.5.5v-18.8c-21.4,0-42.8,0-64.2-.1,21.4.2,42.8.1,64.3-.3Z"/>
  <path class="st3" d="M457,1115.6c.2-3,.2-5.6.2-8.4h-31.4v70.8c2.9-.3,5.3-.5,7.7-1.2-.1-19.3-.1-38.3-.2-57.2.1,18.9.1,37.9.7,57.3,7.9.5,15.3.5,22.8.5v-61.3c-6.6,0-13.3-.1-19.9-.3,6.6.2,13.3.2,20.1-.1Z"/>
  <path class="st3" d="M100,1115.6c.2-3,.2-5.7.2-8.3h-29.3v70.6c2.9-.2,5.3-.4,7.6-1.1-.1-19.4-.1-38.3-.2-57.2.1,18.9.1,37.9.7,57.3,7.1.5,13.8.5,20.8.5v-61.3c-6-.1-11.9-.1-17.9-.4,6,.2,11.9.2,18.1,0Z"/>
  <g>
    <path class="st3" d="M560,1095.5c-.1-6.3-3.6-12.5-5.5-18.7-4.7-1.3-9.4-3.3-14.2-3.8,4.8.5,9.5,2.5,14.2,3.5-5.1-7.9-12.6-12.1-21.3-12.4-20.6-.8-41.2-.8-61.8-1-.3,0-.5.4-.6.4v114.5c2.5-.3,4.7-.5,6.7-1.1,0-35.1,0-69.8,0-105,0,35.2,0,69.9.5,105.1,8.1.5,15.7.5,23.7.5v-86.6c6.3,0,12.1,0,17.9,0,5.2.1,8.5,2.5,9.1,8,6,1.7,7.6,6.2,7.6,11.9,0,21.9,0,43.9.6,66.3,8.1.5,15.7.5,23.3.5,0-27.7.3-54.8-.3-81.9Z"/>
    <path class="st3" d="M528.7,1099.2c-.1,26.4-.1,52.3-.1,78.7,3.2-.3,5.6-.5,8-1.1-.1-22.4-.2-44.3-.2-66.2,0-5.7-1.6-10.1-7.7-11.4Z"/>
  </g>
  <g>
    <path class="st3" d="M147.4,1099c0-7.7-1-15.3-5.4-21.9-12.1-5.8-25.1-5.2-38.1-5.2,12.9,0,25.9-.6,38,4.9-1.7-2.2-3.2-4.2-5-5.9-7.6-7.3-17.5-7.6-27-7.7-27.5-.4-54.9-.2-82.4-.2-1.4,0-2.9.2-4.3.3v114.8c2.8-.3,5.1-.5,7.3-1.1,0-35.1,0-69.9,0-105.1,0,35.2,0,69.9.5,105.1,8.1.5,15.6.5,23.6.5v-86.6c17.8,0,35.2,0,52.6,0,5,0,7.8,3.1,8.9,7.8,5.6,2.2,7.4,6.3,7.4,12.1-.2,21.9,0,43.7.5,66.1,8.1.5,15.7.5,23.4.5,0-26.6,0-52.5,0-78.4Z"/>
    <path class="st3" d="M116,1099.1c-.1,26.4-.1,52.5-.1,79,3.5-.4,5.6-.6,7.7-1.2,0-22.3-.2-44.2,0-66,0-5.8-1.8-10-7.5-11.7Z"/>
  </g>
  <path class="st3" d="M457,1071.6c.2-3,.2-5.6.2-8.4h-31.4v27.4c2.8,0,5.3,0,7.7-.4,0-5.1,0-9.8-.2-14.4.2,4.7.1,9.3.7,14.5,7.8.5,15.1.5,22.9.5v-18.7c-6.7,0-13.3,0-20-.3,6.6.2,13.3.2,20.2-.2Z"/>
  <g>
    <path class="st3" d="M605,1134.3h45.5v-18.4c-21.6,0-43.3,0-64.9-.1,21.6.1,43.3.1,65.1-.2.2-3,.2-5.6.2-8.3h-76.9v70.8c2.9-.3,5.3-.5,7.7-1.2-.1-19.2,0-38-.2-56.8.2,18.8.1,37.6.7,56.9,23.1.5,45.7.5,68.5.5v-18.5h-45.7c0-3.2,0-5.8.1-9.1.1-5.5.1-10.2.1-15.5Z"/>
    <path class="st3" d="M650.8,1149.9c-15.7,0-30.7,0-45.8.3-.3,2.9-.3,5.5-.3,8.7,15.5,0,30.6,0,45.9-.3.2-3,.2-5.8.2-8.6Z"/>
  </g>
  <path class="st3" d="M338.2,1149.9c-11.1,0-22.1.8-31.9-4.5,1,1.3,1.9,2.7,2.8,4-1-1.3-1.9-2.7-3-4.2-11.2-9.5-15.1-21.9-10.7-34.8,4.3-12.6,14.6-19.5,29.1-19.6,4.3,0,8.6,0,13.3,0v-18.7c-15.1-.7-30.2-.6-43.3,8.2,13-8.9,28.2-8.9,43.5-8.7.2-3,.2-5.7.2-9.1-9.6.5-18.7.7-27.8,1.5-14.4,1.2-26.4,7.4-35.7,18.5-11.2,13.4-15.1,29.1-13.1,46.1,1.4,11.8,5.9,22.7,14.9,30.8-2.4-7.9-5.9-15.3-7-23,1.1,7.7,4.6,15.1,7.2,23.3,5.2,4.4,9.9,8.8,15.5,11.5,13.3,6.5,27.9,6.8,42.4,6.4,1.2,0,3.1-2.3,3.2-3.7.4-5,.1-10,0-15-8.9-.5-18-.6-25.5-6.4,7.5,5.8,16.6,5.8,25.7,5.9.2-3,.2-5.6.2-8.7Z"/>
  <path class="st3" d="M1093,1115.6c.2-3,.2-5.6.2-8.4h-31.4v70.8c2.9-.3,5.3-.5,7.7-1.2-.1-19.3-.1-38.3-.2-57.2.1,18.9.1,37.9.7,57.3,7.9.5,15.4.5,22.8.5v-61.3c-6.6,0-13.3-.1-19.9-.3,6.6.2,13.3.2,20.1-.1Z"/>
  <g>
    <path class="st3" d="M1196,1095.5c-.1-6.3-3.5-12.5-5.4-18.7-3.4-1.1-6.8-2.5-10.3-3.1,3.5.6,6.9,2,10.3,2.8-7.2-11-18.3-13-29.7-13.4-17.3-.5-34.6-.2-51.9-.2-.8,0-1.5.3-2.1.4v114.7c2.5-.2,4.7-.5,6.8-1.1,0-35.1,0-69.8,0-104.8,0,34.9,0,69.6.5,104.8,8.1.5,15.7.5,23.7.5v-86.6c6.3,0,12.1,0,17.9,0,5.2.1,8.5,2.5,9.1,8,6,1.7,7.6,6.2,7.6,11.9,0,21.9,0,43.9.6,66.3,8.1.5,15.7.5,23.3.5,0-27.7.3-54.8-.3-81.9Z"/>
    <path class="st3" d="M1164.7,1099.2c-.1,26.4-.1,52.3-.1,78.7,3.2-.3,5.6-.5,8-1.1-.1-22.4-.2-44.3-.2-66.2,0-5.7-1.6-10.1-7.7-11.4Z"/>
  </g>
  <path class="st3" d="M1093,1071.6c.2-3,.2-5.6.2-8.4h-31.4v27.4c2.8,0,5.3,0,7.7-.4,0-5.1,0-9.8-.2-14.4.2,4.7.1,9.3.7,14.5,7.8.5,15.1.5,22.9.5v-18.7c-6.7,0-13.3,0-20-.3,6.6.2,13.3.2,20.2-.2Z"/>
  <g>
    <path class="st3" d="M1326.4,1150.2h-27.1v27.8c2.8-.3,5-.5,7.3-.7v-18.4c6.5,0,12.6,0,19.2-.4.6-3,.6-5.6.6-8.3Z"/>
    <path class="st3" d="M1306.6,1158.9c0,6.5,0,12.5.5,18.4,6.6,0,12.7,0,19.1,0,0-6.5,0-12.5-.5-18.4-6.5,0-12.6,0-19.1,0Z"/>
  </g>
  <path class="st3" d="M1284.4,1151.7c-10.8-2.1-20.8-4-31-5.5.4,1.4,1,2.6,1.7,3.7-.8-1.1-1.4-2.4-1.9-3.9-11.9-9.7-16.1-22.3-11.7-35.5,4.3-12.8,14.6-19.6,29.7-19.7,4.2,0,8.5,0,12.9,0v-18.7c-12-.4-24-.5-35.3,4.2,11.3-4.7,23.3-4.6,35.4-4.7.1-3.1.1-5.7.1-8.6-6.7,0-12.8-.3-18.9,0-9.9.5-19.7,1.9-28.7,6.7-20.5,10.9-31.9,34.2-29,58.2,1.3,11.2,5.1,21.9,13.7,29.7-.2-1.3-.4-2.3-.8-3.2.4.9.6,1.9.9,3.5,1.7,2.4,3.2,4.1,4.9,5.7,16.8,14.7,37,14.1,57.7,13.6v-18.3c-6.7-1-13.5-1.5-20-3.2,6.5,1.8,13.3,2.2,20.1,2.8.1-3,.1-5.6.1-6.9Z"/>
  <path class="st3" d="M723.9,859.5c0-9.3-.5-18.6-1.6-27.9-1.6-14-5.6-27.3-15.7-37.9-1.6-.8-3.4-1.3-4.8-2.4,1.4,1,3.2,1.6,4.7,2-7.9-9.6-17.3-16.5-29.5-18.5-11.3-1.8-22.7-3.8-34-3.9-60.6-.4-121.3-.2-181.9-.2-1.8,0-3.5,0-5.3,0v245.8c2.5,0,4.6,0,6.7-.5,0-77.4,0-154.4,0-231.4,0,77,0,153.9.5,231.4,20.1.5,39.7.5,59.7.5v-187.4c2.3,0,4.1,0,5.9,0,27.8,0,55.6,0,83.4,0,8,0,16,0,23.9.5,8.3.5,15.2,3.6,18.7,11.9,7.4,3.7,8.6,10.7,8.7,17.7-.1-7-1.3-14-8.8-17.3.6,5,1.8,9.6,1.8,14.2.1,51.5,0,103,0,154.4s0,3.9,0,5.9c2.8,0,4.9,0,7.1-.5,0-34.4,0-68.4,0-102.3,0,34,0,67.9.5,102.4,20.2.5,39.9.5,60,.5v-3.5c0-51.3,0-102.5,0-153.8Z"/>
  <path class="st3" d="M1021.3,856.5c0-9.6-.7-19.3-2.1-28.8-1.8-13-6.4-25.1-15.8-34.7-1.2-.4-2.6-.5-3.6-1.2,1,.7,2.4.8,3.6.9-6.7-8-14.6-14.5-24.6-16.5-12.6-2.5-25.5-4.8-38.3-5-60.6-.5-121.3-.2-181.9-.2h-5.3v245.9c2.7,0,5,0,7.3-.5,0-77.4,0-154.4-.2-231.4.1,77,.1,154,.6,231.5,20.1.5,39.7.5,59.6.5v-187c.7-.2,1-.4,1.3-.4,36.9.1,73.9.2,110.8.4,9.1,0,16.3,3.9,20,12.9,5.5.8,6.2,5.7,7.4,9.5-1.2-3.9-1.9-8.7-7.5-9.1.4,6,1.2,11.6,1.2,17.3,0,50.1,0,100.3,0,150.4v5.9c3.1,0,5.4,0,7.6-.5,0-51,0-101.6-.1-152.2,0,50.6,0,101.1.6,152.2,20.1.5,39.7.5,59.5.5v-6c0-51.5.1-102.9,0-154.4Z"/>
  <path class="st3" d="M426.2,779.5c.1-3.1.1-5.7.1-8.3h-68v187.7c-16.7-1-32.8-2.1-49-2.7.5,1.5,1.1,2.9,1.9,4-.9-1.2-1.6-2.6-2.1-4.3-5.4-3.5-8.1-8.1-8.8-13.9-.6-4.6-1-9.3-1-13.9-.1-49.4-.1-98.8-.1-148.3h-59.9c20.4,0,40.2,0,60-.5,0-3.1,0-5.7,0-8.3h-67.7v6.2c0,52.1-.1,104.2.1,156.4,0,10.4,1,20.9,2.6,31.2,1.9,12.1,6.9,23.1,16,31.4-9.2-16.3-11.1-33.9-11.1-51.8,0,17.9,1.9,35.5,11.3,52.1,5.9,4.8,11.2,9.9,17.5,13,10.8,5.5,23,6.9,35,6.9,40.3.3,80.6.2,120.9.2.6,0,1.2-.2,2.1-.4v-5.6c0-37.7,0-75.3,0-113,0-39.3,0-78.6-.1-117.9-18.6,0-37.3,0-55.9-.3,18.6.2,37.3.2,56-.2Z"/>
  <path class="st3" d="M936.3,1158.8c4.1,0,8.3,0,12.9-.3.7-3,.7-5.7.7-8.3h-27v27.8c2.5-.2,4.6-.4,6.7-.6,0-4.9,0-9.9-.1-14.8.2,4.9.1,9.9.6,14.9,6.7,0,13,0,19.4,0,0-6.6,0-12.6-.5-18.5-4.4,0-8.6,0-12.7,0Z"/>
  <path class="st3" d="M781.4,1151.7c-10.8-2.1-20.8-4-30.9-5.5.4,1.4,1,2.6,1.7,3.6-.8-1.1-1.4-2.4-1.9-3.9-11.9-9.9-16.1-22.5-11.7-35.5,4.4-12.9,14.7-19.7,30.2-19.7,4.1,0,8.2,0,12.3,0v-18.7c-14.2-.5-28.3-.3-41.1,7,12.8-7.3,26.9-7.6,41.3-7.5.1-3.1.1-5.7.1-8.2-12.9-1.6-33.2.2-42.2,3.8-24.8,10-37.4,35.9-34.4,60.7,1.4,11.2,5.2,21.8,13.6,29.7-4.4-11.9-8-23.4-6.1-36.1-1.9,12.7,1.6,24.2,6.2,36.4,1.3,2,2.4,3.4,3.7,4.6,16.9,15.7,37.7,15.3,58.9,14.7v-18.2c-6.6-1-13.4-1.5-19.9-3.2,6.5,1.7,13.2,2.2,20,2.8.1-3,.1-5.6.1-6.9Z"/>
  <path class="st1" d="M802.3,1159.3c.7.4,1.5,1,2.2,2-.7-.3-1.4-1-2.2-2Z"/>
  <path class="st3" d="M203.1,892c-9-19-23.2-34.4-36.5-50.4-9.7-11.6-19.7-23-28.9-35-6-7.7-8.6-16.8-6.5-26.8-18.8,0-37.6,0-56.5-.2,18.8.2,37.6.1,56.6-.2.6-3,1-5.7,1.5-8.6-22.8,0-44.9,0-67,.1-1.1,0-3.1,1.6-3.1,2.6-.6,10.2-2.1,20.6-.9,30.6,1.6,13.4,7.5,25.5,16.7,35.4-.4-1.8-.8-3.3-1.5-4.5.7,1.3,1,2.8,1.5,4.5,0,.3-.1.4-.1.4.7.7,1.4,1.5,2.3,2.9,19,23.8,38,46.9,56.9,70,6.9,5.1,10.2,12.6,11.8,20.5-1.5-8-4.9-15.4-11.8-20.1,4.3,8,6.5,16.1,4.4,24.7-2.9,11.9-13.7,19.8-27.2,19.9-18.7.2-37.3.1-56,.1-3.3,0-6.6,0-10,0v58.7c2.5,0,4.6,0,6.7-.5,0-16.6,0-32.7,0-49.4,0,16.7,0,32.8.5,49.4,19.6.5,38.8.8,57.9.5,9.1-.1,18.3-.7,27.3-2,21.3-3.2,40.2-11.6,53.3-29.2,21.8-29.2,24-60.7,8.6-93.5Z"/>
  <path class="st4" d="M78.3,840.3c.7.4,1.4,1.1,2.1,2.2-.7-.4-1.4-1.2-2.1-2.2Z"/>
  <path class="st3" d="M1293.6,965.6c.2-2.9.2-5.5.2-8.6h-5.4c-13.4,0-26.9.2-40.3-.1-5.9-.1-11.7-1.4-17.6-1.8.9,2.2,2,4,3.3,5.4-1.4-1.4-2.6-3.3-3.5-5.6-4.8-3.1-7-7.4-7.8-12.3-.7-4.4-1.2-8.9-1.2-13.3-.2-18.4-.1-36.8-.2-55.2h-59.5c20.2,0,39.9,0,59.6-.4.1-3,.1-5.6.1-8.2h-67.9v5.7c0,16.5-.4,33,.1,49.4.4,14.6,1.2,29.2,3,43.6,1.4,11.6,6.1,22.2,14.8,30.3,0,.1.1.2.2.3,14,16.2,32.2,21.4,52.1,21.9,22.6.5,45.2.2,67.9.2.6,0,1.2-.3,1.9-.4v-50.6c-14.6,0-29.2.2-43.7-.1,14.6.4,29.1.1,43.9-.2ZM1161.5,950.9c.4,12.9,2.3,25.7,7.5,38-5.2-12.3-7.1-25-7.5-38Z"/>
  <g>
    <path class="st3" d="M918.3,1016.9v-142.9h-54.9c0,47.4,0,94.7.5,142.4,18.4.5,36.4.5,54.4.5Z"/>
    <path class="st3" d="M918.4,865.2h-62.2v151.5c2.7,0,5,0,7.3-.5,0-47.7,0-94.9,0-142.4,18.9,0,36.9,0,55-.5,0-3.1,0-5.6,0-8.3Z"/>
  </g>
  <path class="st3" d="M1301.2,779.5c.1-3.1.1-5.7.1-8.3h-158.6v58.8c2.5-.3,4.7-.5,6.7-1.1,0-16.5,0-32.6,0-49.1,0,16.5,0,32.6.5,49.1,50.6.5,100.7.5,151.1.5v-49.4c-9.7,0-19.3-.2-29-.2,9.7,0,19.3.1,29.1-.3Z"/>
  <g>
    <path class="st3" d="M1117.5,1016.9c.2-1.1.4-1.5.4-2,0-46.9,0-93.9,0-140.8h-59.5c0,47.5,0,94.6.5,142.3,19.9.5,39.3.5,58.7.5Z"/>
    <path class="st3" d="M1118.2,865.3h-67.5v151.5c2.8,0,5.3,0,7.7-.5,0-47.6,0-94.8,0-142.3,20.3,0,39.9,0,59.7-.4.2-3,.2-5.6.2-8.4Z"/>
  </g>
  <g>
    <path class="st3" d="M620.8,1016.9v-142.8h-55.4c0,47.3,0,94.5.5,142.3,18.5.5,36.6.5,54.9.5Z"/>
    <path class="st3" d="M621.2,865.3h-62.5v151.5c2.5,0,4.6,0,6.8-.5,0-47.7,0-94.9,0-142.2,19.1,0,37.2,0,55.6-.4.2-3,.2-5.6.2-8.4Z"/>
  </g>
  <path class="st3" d="M1118,779.6c.2-3,.2-5.7.2-8.4h-67.4v58.8c2.9-.3,5.3-.5,7.7-1.2-.1-15.4-.1-30.3-.2-45.3,0,15,0,29.9.7,45.3,19.9.5,39.2.5,58.8.5v-49.3c-13.7,0-27.5-.1-41.2-.2,13.8,0,27.5,0,41.4-.2Z"/>
  <g>
    <path class="st3" d="M1000.6,1150.2h-26.8v40.7c2.5-.3,4.6-.5,6.7-.7v-31.4c5.5,0,10.7,0,16.6-.2,1.6-2.8,2.5-5.5,3.5-8.4Z"/>
    <path class="st3" d="M987.9,1187.1c2.9-9.5,6.2-18.8,8.9-28.2-5.7,0-10.9,0-16.3,0,0,11,0,21.2.4,31.5,3.1,0,5.8.7,7-3.2Z"/>
  </g>
  <path class="st3" d="M1016.4,174.8c0-16.2-1.8-32.6-4.2-48.7-2.3-15.6-8.3-30-18.6-42.3-2.5-1.5-5.1-2.8-7.4-4.6,2.3,1.8,4.9,3.1,7.4,4.2-11.2-14.9-25-26.1-42.7-31.6-18.2-5.7-37.2-7.6-56-7.7-97.5-.4-194.9-.3-292.4-.3-.9,0-1.9.3-2.9.5,0,50.9,0,101.5,0,152.2,0,1.2.4,2.7,1.2,3.6,3.4,4,7.1,7.9,10.6,11.4,0-49,0-97.5,0-145.9,0,48.5,0,97,.1,146.2,34.6,40.9,69.2,80.9,92.5,129.5v-188.4c1.5,0,2.4-.2,3.2-.2,54.8,0,109.7,0,164.5,0,4.6,0,9.3.5,13.9,1.2,14.1,2.3,22.7,10.6,25.2,24.6,1.1,6.2,1.5,12.6,1.5,18.9.1,67,0,134,0,201s0,3.8,0,5.6h104.3v-3.8c0-75.2.2-150.3-.2-225.5Z"/>
  <path class="st3" d="M697.6,390.6c-7.6-34.7-25.4-65.2-45.8-94-25.9-36.6-56.4-69.5-85.5-103.6-15.6-18.2-31.2-36.4-46-55.2-11.2-14.2-20-30.2-21.1-48.8-.6-10,1.6-20.1,2.5-30.2-36.4,0-72.8,0-109.2-.1,36.4,0,72.9,0,109.5-.2,1.3-4.9,2.4-9.6,3.5-14.5h-174.4c-2.2,17-5.4,34-6.3,51.1-1.6,29.7,7.2,57.4,20.6,83.5,5.7,11,13.2,20.9,20,31-.3-1.6-.6-2.9-1.2-4.1.6,1.2.9,2.5,1.3,4,0,.3-.2.4-.2.4.7.7,1.5,1.4,2.2,2.5,0,.3,0,.4,0,.4.7.7,1.4,1.5,2.2,2.9,10.8,14.1,21.2,27.7,32.2,40.8,37.1,43.9,76.6,85.8,110.6,132.3.7.8,1.4,1.5,2.1,2.7,0,.3,0,.4,0,.4,2.2,2.3,4.7,4.4,6.5,7-1.8-2.6-4.3-4.7-6.5-6.7,1.6,3.2,3.4,6.1,4.9,9,8.3,16,13.2,33,9.7,50.9-5.2,26.2-21.2,43.2-47,50.8-13.2,3.9-26.8,4.8-40.4,4.8-47.1.3-94.3.1-141.4.1h-6.3c0,2.5,0,4.5,0,6.5,0,42.8,0,85.6,0,128.5,0,10.9,0,11,11.2,9.3.1,0,.3-.2.4-.7,0-41.3,0-82.1,0-123,0,40.8,0,81.7.4,123,53.6.5,106.8.5,159.9.6,24.7,0,49.2-2,73.4-7.2,36.9-7.9,71.3-21.8,98.7-48.2,59.3-56.9,76.9-126.9,59.6-206Z"/>
  <path class="st3" d="M851.5,208.2c-28.8.2-57.6,0-86.4.1-1.8,0-3.6.2-5.3.2v196.5c4.2-.3,8-.5,11.7-1.2,0-59.5-.1-118.6-.1-177.7,0,59.1,0,118.2.6,177.7,28.4.5,56.4.5,84.6.5v-6.1c0-43,0-86,0-128.9,0-15.5,0-31-.2-46.5h-84.5c28.3,0,56.4,0,84.7-.3.3-3.2,0-6,.4-8.8.6-4.5-1.1-5.6-5.5-5.6Z"/>
  <g>
    <path class="st3" d="M1016.6,652.1v-118.2h-93c0,39.3,0,78.2.4,117.7,31.1.5,61.8.5,92.6.5Z"/>
    <path class="st3" d="M1016.7,519.8c-34.4,0-68.8,0-103.8.5-.5,44.3-.5,88.1-.5,132.8,4-.5,7.5-.8,11.1-1.7.1-39.4.1-78.3.1-117.6,31.4,0,62.2,0,93.3-.3.1-4.8,0-9.3-.2-13.7Z"/>
  </g>
  <path class="st3" d="M1017.1,426.2h-104.3v53.5c3.9,0,7.3,0,10.8-.5,0-11.7.2-23,0-34.3.2,11.3,0,22.6.5,34.4,31.1.5,61.8.5,92.4.5v-39.9c-11.5,0-23,.1-34.5.2,11.5,0,23.1-.2,34.9-.4.3-4.7.3-9.1.3-13.4Z"/>
  <path class="st3" d="M880.4,425.8c-24.1.9-47.7-1.3-71.3,2.8-24.9,4.3-46.8,14.2-64.6,32.1-23.5,23.7-35.1,52.1-33.2,85.9,1.2,21.8,8.9,41.1,21.7,58.5,1.3,1.7,3.1,3.1,4.7,4.2,0,.1,0,.2.1.4,14.2,17.9,32.5,28.8,53.5,35.4,28.8,9.1,58.5,7.1,88,7,.2,0,.5-.4.8-.7v-38.3s-.4,0-.6-.2c-16.6-.6-33.2-.2-49.5-1.9,16.3,1.7,32.9,1.2,49.3,1.8,0-3.3-.1-6.6,0-9.9.2-3.1-1-4-4-4-9.8,0-19.5-.1-30.1-.6-19.5.4-37.7-.8-53.2-13.3-.2-.1-.6,0-.9.4,4.7,7.7,10.4,14.2,17.3,18.6-6.9-4.5-12.8-11-17.6-18.8-.9-1.4-1.3-2.3-1.9-3-13.9-13.9-19.3-30.8-17.8-50.3,1.9-25,22.7-47.8,47.5-51.2,7.2-1,14.6-.8,21.9-.9,13.1-.1,26.2,0,39.5,0v-39.8c-16.6.6-33.3.7-49.9,1.9,16.6-1.3,33.2-1.3,50-2.4.1-4.7.1-9,.1-13.8Z"/>
  <path class="st5" d="M512.4,389.2c.7.5,1.4,1.2,2,2.4-.7-.4-1.3-1.2-2-2.4Z"/>
  <path class="st2" d="M367.4,213.3c.7.4,1.4,1.2,2.1,2.3-.7-.4-1.4-1.2-2.1-2.3Z"/>
  <path class="st2" d="M365.2,210.3c.7.4,1.5,1.1,2.2,2.2-.8-.4-1.5-1.1-2.2-2.2Z"/>
  <g>
    <path class="st3" d="M354.9,1173.4c.4-32.8.3-65.2.3-97.5-2.2,1-4.5,2-7.2,3.4-.5,13.3-.5,26-.5,38.8,0,17.9.2,35.9.2,53.8,2.2.6,4.5,1.3,7.1,1.4Z"/>
    <path class="st3" d="M418,1115.6c.2-3,.2-5.6.2-8.7-13.2,0-26,0-39,.3-.4,3.1-.7,5.1-.5,6.4-.3-1.3,0-3.4.4-6.8.2-12.1.1-23.4,0-34.7-2.6,0-5.2-.1-8.3-.3-4.5,0-8.5,0-13,0-1.2,1.1-1.9,2.3-2.6,3.8,0,32.7,0,65.1,0,97.9,0,1.4.2,2.3.8,3.6,7.9.4,15.4.4,23.3.4v-43.1h38.5v-18.3c-10.6,0-21.3-.2-31.9-.2,10.6,0,21.3.2,32.1-.2Z"/>
    <path class="st3" d="M347.7,1172.4c0,5.9.6,6.2,7.9,4.5-.1-1.2-.3-2.1-.7-3.1-2.6-.6-4.8-1.3-7.1-1.4Z"/>
    <path class="st3" d="M370.4,1071.3c1.5-.9,2.9-1.6,4.5-2.2-1.6.7-3,1.3-4.1,2.3,3,.4,5.6.5,8.4.1.1-3,.1-5.6.1-8.6-10.1,0-19.6,0-29.2,0-3.3,0-2.8,2-2.5,4h5.2c-1.7,0-3.5,0-5.3.4,0,1.8,0,3.2.5,4.6,2.1-1.1,3.8-2.1,5.6-3.2-1.7,1.1-3.5,2.1-5.7,3.6-.4,2.5-.3,4.5,0,6.6,2.6-1,4.9-2,7.2-3.4.8-1.5,1.5-2.7,2.2-3.9,0-.7,0-1.4,0-2.1,0,.7,0,1.4.4,2.2,4.5,0,8.5,0,12.6-.4Z"/>
  </g>
  <path class="st0" d="M832.5,1148.7c-13.5-11.8-13.2-34.8-7.7-46.8,4.4-9.5,12-14.5,22.5-14.4,11.3,0,19.2,5.5,23.8,16.6.9,8,2.4,15.4,2.1,22.8-.4,13.4-8.6,23.3-20.2,25.7-7.3,1.5-14.1-.2-20.5-3.8Z"/>
  <path class="st3" d="M893.6,1081.8c-1.8-.9-3.5-1.8-5.3-2.7,1.7.9,3.5,1.7,5.2,2.4-9.9-12.2-23-18.4-37.9-20.2-20.3-2.4-38.3,3-52.2,18.8-13.4,15.3-17.1,33.4-13.7,53,1.7,9.7,5.2,18.8,12.6,25.5-.3-1.5-.5-2.6-.9-3.7.5,1,.7,2.2,1,3.6,0,.3-.1.4-.1.4.7.7,1.5,1.3,2.4,2.6,16.2,16.6,35.7,20.8,57.2,16.6,26.2-5.1,44-27.6,44.5-55.1.3-15.1-2.5-29.4-12.8-41.3ZM832.4,1149.4c-13.5-12.5-13.1-35.5-7.6-47.5,4.4-9.5,12-14.5,22.5-14.4,11.3,0,19.2,5.5,23.5,16,1.2.8,2.2,1.1,2.5,1.6-.4-.6-1.3-.8-2-.8.6,7.8,2.1,15.2,1.8,22.6-.4,13.4-8.6,23.3-20.2,25.7-7.3,1.5-14.1-.2-20.6-3.5,6.5,10.8,24.2,12.6,34.7,4.6-10.4,8-28.2,6.3-34.7-4.2Z"/>
</svg>