<?xml version="1.0" encoding="UTF-8"?>
<svg id="Layer_1" xmlns="http://www.w3.org/2000/svg" version="1.1" viewBox="0 0 1887.1 941.39">
  <!-- Generator: Adobe Illustrator 29.3.1, SVG Export Plug-In . SVG Version: 2.1.0 Build 151)  -->
  <defs>
    <style>
      .st0, .st1 {
        fill: none;
      }

      .st1 {
        stroke: #fff;
        stroke-miterlimit: 10;
        stroke-width: 3px;
      }

      .st2 {
        fill: #fff;
      }
    </style>
  </defs>
  <path class="st1" d="M11.58,546l8.54-200.33c-.48-2.07-17.13-2.85-20.05-2.66.06-1.48-.18-3.03-.02-4.52,1.72-15.73,13.85-37.23,16.29-53.72l3.45-3.55,126.83-.17c53.6-.94,107.69-1.67,160.92-2.09,17.86-.14,35.82,0,53.53,1.06,2.08,4.42-6.46,17.86-1.37,19.76,27.29.34,54.69.15,81.93.29,24.31.12,55.6-3.64,75.65,13.96,7.47,6.55,10.52,16.27,17.33,23.03,1.38.17,2.02-.09,2.98-1.04,2.62-2.59,7.6-27.16,9.98-33.01.64-1.56,1.04-2.86,3-3l129.84-1.05c4.31,1.05-4.41,17.38-2.34,21.05l13.39.72c26.24-20.9,61.91-33.47,95.65-26.26,4.21.9,13.39,5.36,16.69,5.32,2.04-.03,4.45-3.78,5.78-3.78h51c5.63,0-10.79,25.69,4.4,20.89,1.38-3.6,3.18-15.78,6.11-17.38,35.03-1.17,70.38-.22,105.53-.47,85.15-.61,171.84-2.69,256.92-3.09,15.8-.07,39.29-1.84,54.09,0,9.21,1.14-3.39,15.5-.12,20.12,12.94,5.48,19.74-4.68,29.71-10.43,16.59-9.58,26.68-10.94,44.17-15.67.86-.23.65-1.88,1.13-1.85,9.27.59,19.38-1.02,28.96-.01,5.51.58,26.52,8.21,27.95,7.98.38-.06,2.51-4.1,5.4-4.83s12.98-1.12,16.71-1.29c8.27-.38,24.44-1.07,32.09,0,5.62.78,7.05,4.33,16,4.1,87.89-2.33,174.84-1.79,262.78-2.42,39.07-.28,77.93-2.41,117.02-1.47l1.23.79c2.36,3.25-6.36,17.12-4.16,20.13,2.57,3.51,21.11-4.1,20.59,3.36l-35.43,106.66c-2.86,2.06-38.16.67-45.12.88-3.35.1-6.11,2.55-8.41-.58-2.69-3.66,8.89-20.55,2.47-21.15l-2.98,1.82-22.57,71.29c7.55,4.93-3.05,15.24-.97,22.67h16.5c.43,0,2.48-2.27,3.39.66,1.89,6.15-15.46,45.02-16.38,54.35l-3.45,3.55-137.47.55c-3.48-2.5,8.79-20.82.15-20.86-2.96-.01-19.4,3.11-18.45-2.77.14-.87,1.95-1.74,2.47-3.24,4.02-11.57,7.94-23.62,11.75-35.25,1.56-4.78,3.94-12.43,3.5-16.99,6.33.73,12.38-.71,18.48-1.09,2.52-.16,4.93.89,6.93.78,5.44-.31,6.7-13.5,8.09-17.7,3.28-9.88,7.05-19.71,10.2-29.65-.18-2.21-.63-5.13-3.18-5.36-5.12,1.15-30.74-.38-33.05,1.98l-.97,2.03c-12.3,32.16-17.29,72.43-40.85,98.65-34.82,38.75-69.89,34.13-118.14,31.26-2.22-.13-4.19,1.26-6.74.91-8.18-1.1-24.24-13.66-28.76-20.54-5.52-8.41-6.22-8.82-12.57-16.24-2.42-2.83-4.29-7.7-6.15-10.79-3.32-5.5-11.24,8.94-13.77,11.76-13.1,14.6-29.47,27.2-48,34-14.33,5.26-42.95,3.98-58.97,4.03-31.9.1-38.91-11.93-56.56-34.52-2.1-2.69-5.31-4.83-7.41-7.59-17.91-23.46-17.43-50.1-13.32-78.2,1.71-11.72,7.24-12.5-10.34-13.33-2.6-3.57,3.4-12.79,3.8-17.07.38-4-3.59-4.85-5.53-1.67l-20.94,67c-.25,2.79,3.15,4.3,3.37,5.79.48,3.23-7.57,19.54-2.09,19.54h17l1.31,4.25c-5.88,14.63-8.67,31.33-14.1,45.96-1.19,3.22-2,7.95-6.16,7.84-34.35-.74-68.85.38-103,1-4.43.08-31.02.58-32.1-.97-2.79-3.78,5.38-18.2,3.57-20.07-2.83.46-9.74-1.12-11.51,1-3.12,3.74-3.32,15.11-6.92,19.08-2.79,1.97-31.01.77-37.12.89-52.79,1.04-106.83.72-159.79,1.41-11.81.15-23.97,1.91-35.66-.38,1.55-4.18,3.63-8.44,4.69-12.79.46-1.87,1.88-4.88-.2-6.18-3.71,4.82-3.64,15.84-6.42,20.31-.62.99-1.74,1.17-2.78,1.42l-48.86.3c-8.72-6.64-15.59,1.67-25.05,2.83s-40.64,1.78-49.44-.34c-11.22-2.7-24.85-12.07-31.93-21.07-2.87-3.65-10.53-18.4-15.49-17.5l-12.19,36.07c-27.94.33-55.94-.58-83.88-.09-15.08.26-32-.29-46.99,1.01-7.19.62-13.72,4.35-20.98,5.02-13.28,1.22-30.66.44-42.21-6.71-2.8-1.73-8.63-9.2-11.76-9.29-1.39,3.05-2.36,11.31-5.99,12.03l-127.99.95c-8.71-1.62,3.39-17.47-.75-20.74s-19.27,2.66-20.72-1.85l17.06-58.2,22.22-1.1c3.35-11.96,7.4-24.17,10.97-36.27,5.58-18.9,10.24-37.63,15.52-56.48,1.57-5.6,6.43-11.36,3.67-17.33l-108.71,191.78-90.13,1.25c-4.12-1,3.08-21.26-1.31-22.12-9.07-1.76-10.73,20.51-18.89,22.06-27.25-.5-54.97.79-81.93-.02-1.37-.04-2.89,1.02-4.12.97-6.74-.28.88-17.95-3.93-21.92h-15ZM246.08,295h-102.5c-2.76,3.46-11.77,32.74-10.5,34,17.23-1.03,20.92,11.51,16.72,26.22l-56.23,105.77c-2.27,1.12-1.59-4.42-1.53-5.54,1.03-17.99,2.99-36.01,4.03-53.97,1.11-19.13.07-42.21,3.25-60.75.43-2.53,2.71-7.73,4.78-9.22,3.94-2.85,10.43-1.02,12.86-5.14,1.32-2.24,8.1-24.07,8.71-27.35.2-1.06.8-2.04,0-3.08-.73-.99-1.96-.87-3.03-1-23.24-2.76-55.12.93-79.03,1.13-4.98.04-12.86-3.56-15.75,2.19-1.12,2.22-8.93,27.72-8.81,29.24.73,3.37,5.65,2.68,8.75,4.3,9.05,4.72,8.57,20.88,8.29,29.69-1.56,48.76-5.83,100.06-9,149-.26,4.03-2.83,16.82-1.5,19.52,2.15,4.35,16.57,1.05,20.97.95,15.51-.34,31.07.74,46.55-.45l48.49-89.49c2.26,1.44,1.11,2.28,1.02,3.98-1.33,26.71-7.57,55.15-8.56,81.55-.05,1.25.18,4.45,1.54,4.45h64l3.7-4.3c34.54-57.57,63.51-121.32,99-178,4.5-7.18,9.21-15.14,17.52-18.48,3.13-1.26,10.74-1.84,12.36-3.64,1.81-2,10.22-31.27,8.93-32.58-9.35,1.29-76.75-.87-79.53,1.98-1.17,1.19-10.7,30.88-9.48,32.02,8.22.4,17.79.28,12.78,11.28l-63.33,119.66-3.43,1.06,12.45-121.04c4.5-17.22,21.37-5.72,26-12l9.55-31.95ZM1458.08,305h-26.5l-10,10.67c-31.33-23.89-77.12-12.78-106.83,8.5-67.05,48.02-124.24,222,10.69,202.69,45.56-6.52,78.32-45.51,90.64-87.86h-26.5c-9.06,20.64-22.1,45.9-44.52,54.48-15.12,5.78-33.43,3.84-35.89-15.06-3.65-28,19.67-96.3,35.69-120.14,8.66-12.89,22.64-25.29,39.47-23.01,20.24,2.74,18.6,27.99,17.74,43.22-.13,2.33-3.48,14.51-.49,14.51h28l28.5-88ZM1825.08,386l25.04-80.53-177.87.7-25.99,78.52,1.86,2.86,23.01-1c7.98-22.41,22.5-51.59,50.87-46.45l-45.2,140.11c-4.27,12.49-19.41,8.65-29.75,10.25l-8.88,27.92,3.37,1.67,106.88-1.21c1.39-.46,1.69-1.66,2.17-2.83,3.18-7.84,5.97-18.74,7.5-27h-18.5c-.98,0-5.08-2.25-5.33-3.7l1.3-11.33,43.08-132.92c2.21-3.27,9.86-2.28,13.5-1.59,20.37,3.85,11.7,32.69,8.96,46.54h24ZM1664.08,306c-16.81.42-33.73-.56-50.54-.05-2.36.07-4.55.98-6.92,1.08-4.59.2-19.25-1.29-21.61,1.39-.88,1-8.12,22.63-8.71,25.3-.24,1.09-.32,2.16-.23,3.27,6.61.28,21.17-1.87,18.89,8.37-12.51,36.67-21.76,77.22-35.87,113.15-7.55,19.21-17.87,34.35-40.48,35.52-29.82,1.54-22.28-23.22-16.85-42.84,9.46-34.18,23.37-68.42,33.45-102.55,3.07-9.96,10.05-10.9,19.46-11.55,2.35-.16,4.83,2.07,6.97,0l10.39-28.6-103.85-.37-8.92,28.25c5.76,7.2,21.21-3.97,18.8,11.12-9.67,37.82-25.02,74.15-35.26,111.75-14.47,53.15,11.52,71.29,62.75,67.75,49.77-3.44,74.92-29.83,90.53-74.47,12.39-35.43,22.08-71.87,34.81-107.19,2.3-11.56,21.05-6.13,24.24-9.76,1.37-1.55,10.03-28.47,8.94-29.56ZM838.08,413h-91.5c-2.73,5.69-9.4,22.78-9.16,28.37.03.81.41,2.46,1.33,2.68,9.26.15,15.79-2.54,14.25,9.38-1.05,8.1-9.9,36.12-15.38,41.62-8.18,8.2-28.4,7.23-34.05-4.03-7.97-15.9,2.96-54.8,8.01-72.01,7.15-24.33,23.11-76.04,52.99-79.01,26.42-2.63,26.49,23.4,25.55,42.54-.12,2.5-3.24,15.46-.54,15.46h27c2.06-2.52,2.75-6.16,3.77-9.23,7.04-21.26,15.35-47.93,20.44-69.56.38-1.63,2.73-9.21-.21-9.21h-23c-3.13,0-5.57,10.65-9.87,10.93-16.05-15.75-40.91-15.82-61.64-11.44-68.34,14.45-116.08,108.42-108.71,173.73,5.51,48.91,51.57,58.3,91.99,43.54,3.89-1.42,20.03-10.28,21.21-10.38.44-.04,2.23.51,2.39.77.58,2.48.38,9.9,2.77,10.71l27.68-.06,2.75-3.25c8.67-22.1,12.02-51.95,22.08-72.92,5.05-10.53,11.19-8.26,21.72-8.78l8.14-29.86ZM1070.08,392h23.5c4.41-8.36,6.71-17.07,11.71-25.29,8.36-13.74,20.52-23.96,37.68-21.61l.59,3.02c-12.94,39.57-23.2,80.12-36.22,119.65-1.66,5.03-5.82,19.79-9.32,22.68-6.22,5.12-22.94.52-25.71,3.8l-8.24,28.75,108.31-.19c2.03-.61,2.27-2.36,2.99-4.01,3.12-7.24,5.35-18.05,6.71-25.79h-17.5c-3.02,0-7.75-3.61-6.43-7.35l42.06-139.03c2.15-3.98,8.12-2.85,11.93-2.18,17.24,3.03,15.8,20.47,13.82,33.93-.33,2.26-4.53,12.62-1.38,12.62h22l25.01-78.5-1.16-2.55c-10.62.28-21.27-.19-31.9,0-38.49.71-77.44.94-115.91,2.09-9.5.28-19.11-.69-28.58.42l-23.96,79.54ZM979.58,399h-44.5c-.34-2.88.65-5.49,1.29-8.21,2.09-8.93,9.37-35.6,13.88-42.12,5.47-7.93,13.23-3.89,15.75-7.25.82-1.09,7.95-24.77,7.92-26.14-.03-1.24-.41-1.55-1.33-2.28h-90c-3.11,3.07-10.21,26.86-9.42,29.36,1.25,3.97,15.27-1.01,17.84,4.28,1.9,2.94-1.42,13.51-2.42,17.36-6.92,26.82-16.08,55.13-24.23,81.77-3.59,11.73-6.82,25.58-11.25,36.75-4.03,10.17-5.88,12.57-17.53,13.27-2.71.16-5.79-2.5-8.56.64-.82.92-6.92,20.86-7.48,23.51-.36,1.69-.65,3.32-.46,5.05l92.02-1.48c1.5-.9,9.35-27.16,7.98-28.51-5.87-.3-11.27-.09-10.93-7.35.43-9.19,11.1-41.15,14.67-51.42.92-2.65,1.29-5.51,3.76-7.24h43.5c.17,2.4.01,4.68-.45,7.05-2.07,10.61-10.76,39.1-15.38,48.62-2.25,4.64-3.29,7.91-8.9,9.1-2.8.59-6.25-.69-8.33,1.67-3.17,3.58-6.85,23.02-7.93,28.57h90.5c.99,0,2.39-3.13,2.81-4.19,1.11-2.83,7.63-24.85,6.7-25.81-5.53-.31-19.36,2.18-18.93-6.39,7.91-27.93,15.9-55.88,24.43-83.61,4.16-13.55,11.69-45.37,18.31-55.69,6.3-9.83,19.75-3.77,23.25-7.75,1.13-1.29,8.98-27.5,7.94-28.56l-92.86,1.14c-1.2.77-8.29,25.94-8.18,27.36.34,4.46,9.72.46,11.02,7.02s-8.07,34.41-10.71,42.25c-.61,1.81-2.44,8.81-3.77,9.23ZM492.08,468c-2.47,6.17-6.75,28.6-14.59,29.01-5.54.29-4.64-6.29-4.15-10.26,1.87-15.14,16.89-47.89,9.16-61.67-3.14-5.6-9.35-6.77-14.4-9.58,6.93-4.99,15.68-7.22,22.48-12.5,34.39-26.7,41.65-89.1-16.01-88.99l-126.79.18c-1.44.43-1.86,1.31-2.44,2.56-1.08,2.36-7.56,25.29-7.18,26.62,1.14,3.98,21.99-2.1,19.85,8.97-13.37,42.43-22.24,88.59-36.64,130.44-2.63,7.65-4.72,14.91-13.87,16.13-4.67.62-9.87-1.02-14.18,1.32-1.01,1.03-7.86,26.42-7.7,27.86.14,1.24.44,2.23,1.94,1.97l100.87-1.22c1.39-.46,1.69-1.66,2.16-2.84,1.4-3.46,6.93-21.99,7.05-24.94.05-1.23-1.54-3.06-2.05-3.06h-15c-5.27,0-2.84-10.15-2.2-13.2,2.62-12.6,8.83-34.66,13.42-46.58.63-1.63,1.05-4.41,2.94-5.06,1.3-.44,13.53-.7,15.84-.59,18.37.85,18.05,6.16,15.01,22.44-5.25,28.14-31.72,76.35,17.95,79.03,36.65,1.98,55.6-25.06,63.8-57.27.8-3.13,2.09-5.54.74-8.77h-16ZM660.58,314h-99c-.71,0-2.18,2.53-2.56,3.44-1.17,2.72-7.33,24.4-6.86,25.92.92,2.92,9.52,1.29,12.44,1.62,5.83.67,7.37,3.77,6.37,9.42-13.35,41.35-22.18,86.65-36.61,127.39-3.48,9.83-4.79,14.39-16.07,15.93-3.19.44-10.06-.47-11.75,1.25l-8.47,29.03c25.13-.61,50.42.82,75.55.05,2.84-.09,5.24-.96,7.91-1.09,5.05-.24,12.58.9,17.05.05,1.5-.28,1.58-.45,2.32-1.68,1.14-1.88,6.42-20.13,6.92-23.08.3-1.76.34-3.5.25-5.26-22.89,1.25-20.18-3.01-15.5-21,10.64-40.94,24.71-81.21,36.02-121.98,3.51-13.1,15.77-6.92,25.25-10.25l8.06-26.53c.52-1.14-.33-2.95-1.33-3.24Z"/>
  <path class="st1" d="M1767.88,562.29c13.9-.17,33.54-1.93,46.75-.34,1.07.13,2.3-.04,3.02.98l-.08,79.12c-1.42,3.3-12.66,1.7-16.02,1.9-50.67,3.07-101.95,1.5-153,2-191.05,1.86-381.97,3.08-572.81,5.2-329.77,3.68-659.19,11.55-989.11,14.88-15.38.16-39.8,1.89-54.09,0-1.1-.15-2.17-.14-3.05-.95-2.98-2.36-.68-7.08-.78-9.77-.52-14.67-1.09-29.2-1.58-43.87-.25-7.34-2.03-17.29-1.77-24.18.1-2.65,2.6-5.03,5.16-5.34,13.77-1.69,34.42.14,49.05.1,271.86-.69,542.65-7.58,814.06-11.08,291.4-3.76,583.51-5.19,874.25-8.66ZM1755.08,598h-51c-.4-3.11,5.73-17.18,7.66-17.84l88.08-2.42,2.25-6.73-104,1.49-28.8,61.24.77,2.79,108.04-1.01c2.2-2.1,4.73-6.96.48-7.51l-88.5,1c-1.38-1.44,7.92-22.24,9.66-22.84l52.66-1.12,2.67-7.04ZM1657.08,572h-14.5l-23.98,47.8-63.17-45.65-9.36-.67-28.99,64.51h15.5l23.13-46.92,62.23,44.56c2.95,1.89,6.55,3.28,9.92,1.63l28.45-59.55.78-5.72ZM1504.08,573h-14.5c-1.18.91-1.94,2.04-2.7,3.3-10.12,16.89-15.73,40.49-26.35,57.67l-.03,4.09c1.16,1.61,14.96,2.01,16.44-1.71l26.67-58.33.47-5.03ZM1350.08,575h-14.5l-28.5,65h14.5c6.91-7.06,9-23.2,14.61-30.39,1-1.28,1.6-1.79,3.34-1.66l73.1-.69c1.04.4,1.44,1.15,1.52,2.24.31,4.73-10.92,21.84-12.06,27.98.5,2.52,13.31,1.64,16.02,1.04l27.51-59.49.48-5.03c-4.13.56-12.11-1.24-15.43,1.08-3.66,2.55-8.51,23.3-13.27,24.73l-74.68,1.12c-1.59-.8-1.71-1.53-1.47-3.19.54-3.61,11.27-20.25,8.84-22.73ZM1282.03,623.07c-10.53-5.64-11.6-1.44-20.27,2.11-18.33,7.49-36.27,10.43-56.21,8.86-17.13-1.34-39.37-11.71-23.99-31.06,15.6-19.61,68.12-25.66,89.52-15.47,2.77,1.32,8.01,6.35,9.52,6.5,1.36.14,11.46-2.71,12.47-3.52,5.47-4.34-13.49-11.25-16.77-12.21-30.29-8.79-93.81-1.79-113.05,26.38-17.43,25.52,18.71,36,37.35,37.32,27.69,1.97,56.82-3.35,81.37-16.1l.06-2.82ZM1136.08,641l-.78-3.72-35.91-59.09c-5.55-.15-11.78-1.38-16.64,1.97l-86.65,61.33c15.95,7.94,26.1-9.02,38.08-14.9,7.46-3.66,48.79-1.34,60.44-1.56,4.8-.09,10.34-2.8,15.21.21l9.75,15.74h16.5ZM960.08,643h14.5l27.11-60.96-.04-2.07-11.98-.88-71.17,38.94-2.96-.96-34.08-35.93c-3.44-2.08-14.07-1.27-16.28,1.47-7.03,18.47-17.92,36.99-24.58,55.42-.83,2.29-1.83,4.44-1.52,6.98l15.76-1.25c5.93-13.22,10.79-27.4,17.07-40.42.83-1.73,3.02-6.91,4.78-7.28l34.86,35.05,66.03-36.07,1.06,3.02-18.57,44.95ZM716.58,646c5.08,1.02,13.04-.75,18.5,0,.03-1.35.35-1.95-.66-3.05-1.83-1.99-9.59-6.14-12.33-7.97-2.49-3.59,12.18-5.62,12.7-9.47-5.75-12.64-16.41,2.16-23.95.29l-44.75-33.31,2.48-1.49,53.88-1.14,1.15-1.85c-2.54-3.63-2.39-4.61-6.96-5.08-18.53-1.88-43.17.38-62.02,1.1-6.82.26-13.73-.28-20.55-.04-.07,1.39-.29,1.91.68,3.04,3.51,4.07,18.59,11.5,20.84,14.94.65.99.57,1.91.48,3-13.07,2.93-48.54,12.07-49.08,28.5-.36,10.82,14.13,14.09,22.71,15.39,25.33,3.84,50.97-2.04,74.9-9.77,4.08.07,8.59,6.21,11.98,6.9ZM339.08,653h15.5c4.55-5.07,19.71-49.08,22.99-49.06s30.85,32.14,37.05,35.09l68.46-36.03-18.98,45.61.41,2.44,2.06.98,12.52-1.51,27.83-62.22c.2-3.26-8.83-2.6-11.4-2.34-4.06.41-5.97,1.82-9.47,3.53-22.09,10.8-43.04,26.09-65.51,36.5l-37.1-36.85c-3.75-1.92-17.41-2.88-19.12,2.63l-25.26,61.24ZM234.88,589.29c-8.4.26-16.84,1.26-25.3.7l-2.01.99-26.35,61.68,1.52,2.17c37.79-.82,80.77,4.42,116.02-11.67,17.11-7.81,40.36-29.71,16.66-45.01-18.33-11.83-58.76-9.54-80.54-8.87ZM130.09,617l-50.35.85c-1.72-.6-1.67-1.53-1.49-3.1s5.95-14.74,6.82-15.26l87.49-1.51c3.11-.43,3.86-3.81,4.46-6.4l-1.59-1.42-104.12,1.51-27.18,63.73c.74,2.52,15.41,1.74,18.5,1.65,2.37-.07,4.55-1.04,6.92-1.08,28.5-.53,57.06.9,85.54-.46,7.32-10.11,1.26-7.45-5.46-7.45-24.23,0-58.14,2.62-81.09,0-1.11-.13-3.21-.31-3.45-1.58-.21-1.13,8.17-20.36,9.22-20.81l51.25-.68c3.53-.67,4.84-4.86,4.52-7.97Z"/>
  <path class="st2" d="M1278.08,145.01l-123.35,82.14c-9.2,8.47-3.65,21.63,8.8,20.88l70.55-18.02c-5.9,6.03-19.87,6.08-21.03,16.47-2.75,24.72,37.31,6.6,50.02,9.01-3,2.19-7.4,3.03-10.98,4.02-29.82,8.22-60.2,14.7-90.01,22.99-4.17.28-2.44,5.75-3.06,6.44-.25.28-6.23,1.02-7.4,1.1-38.85,2.55-82.57-.38-122.08-.08-40.75.31-82.14,1.52-122.92,2.08-10.25.14-24.22.99-34.04-.05-1.9-.2-3.81-.51-5.42-1.62l-29.06-29.88,5.44-1.51,111.57,17.59,5.99-3.06c19.49-18.83,36.87-39.86,55.93-59.04,1.98-2,8.45-9.16,10.54-9.51s1.28.41,1.74,1.31c6.91,13.62,10.38,31.39,17.92,45.07,2.7,3.77,7.64,5.47,12.11,4.42,70.6-33.19,138.38-72.33,208.39-106.62,3.28-1.6,6.68-3.65,10.35-4.14Z"/>
  <path class="st2" d="M1362.45,128.38c-5.42,3.55-10.59,7.86-16.05,11.43-18.07,11.82-36.36,23.31-54.43,35.57-.84.57-13.37,6.24-10.88,8.61l130.38-33.95c13.51,1.9,21.31,12.64,17.13,25.97-4.97,15.87-35.86,22.05-49.84,27.97l-.68,3.01c15.38-1.21,30.34-4.66,45.65-6.85,17.77-2.55,47.79-8.41,64.7-7.77,20.23.77,23.19,26.38,6.62,37.08-74.71,20.94-150.57,38.58-225.71,58.29-10.01.31-19.82,1.38-29.74,1.27-1.17-.01-3.75.69-3.49-1.01l253.67-64.83c14.2-7.02,9.74-24.89-6.22-23.24l-163.46,22.05,95.93-41.56c9.89-7.65,7-20.31-5.51-22.36l-168.38,44.48-6.05.44L1502.01,28.42c8.11-11.87-.02-24.38-14.14-20.14l-420.52,217.54-2.62.1-20.79-51.28c-3.97-6.74-12.72-7.55-18.89-3.19-24.99,23.92-47.21,53.25-71.92,77.08-1.42,1.37-2.78,2.76-4.78,3.3l-145.88-23.74c-9.31.58-15.48,9.33-10.93,17.96l37.59,40.43-1.69,2.38c-7.25,1.97-15.16-10.31-19.8-14.92-9.04-8.99-28.06-22.88-25.31-37.22,2.7-14.04,14.52-16.71,27.13-15.6,39.24,3.43,82.49,15.56,122.23,20.77,4.94.65,10.72,1.2,15.69.89l71.06-75.44c7.55-8.24,23.54-8.38,30.67.41,6.37,7.85,12.47,33.49,17.62,44.15,1.01,2.09,1.99,3.98,4.68,3.85,24.28-12.61,48.36-25.73,72.66-38.28,80.82-41.74,161.22-82.63,241.91-124.09,22.55-11.58,44.58-24.42,67.23-35.77,8.11-4.06,30.19-16.21,37.61-17.38s14.45,1.83,18.45,8.06c14.49,22.56-16.81,35.12-31.5,44.88-38.24,25.41-76.92,50.07-115.32,75.19Z"/>
  <path class="st2" d="M852.78,662.31l23.81,24.69-1.14,1.87-110.92-16.9c-7.24-.2-9.85,2.97-14.49,7.51-8.48,8.3-16.62,18.44-24.92,27.05-11.8,12.24-23.68,24.35-35.66,36.39-1.61.29-2.46-1.57-3.11-2.68-6.39-10.9-10.45-32.09-17.25-41.75-3.08-4.38-9.65-6.91-14.83-4.81l-207.8,106.19-6.37,2.11c.91-2.12,3.08-3.35,4.87-4.62,35.61-25.35,76.48-46.6,111.85-72.14,1.47-1.06,4.31-2.78,5.3-3.99,7.57-9.3-.22-21.08-11.52-19.25l-70.5,18c3.5-4.36,10.23-5,14.88-7.61,12.21-6.85,7.65-22.59-6.33-22.42-9.94.12-22.69,4.26-33.06,5.02-1.18.09-5.47.83-5.48-.98l110.5-28c63.47-.45,126.67-2.1,190.03-2.97,27.89-.38,55.98-.54,84-1,5.74-.09,12.22-2.78,18.16.27Z"/>
  <path class="st2" d="M907.49,673.59c5.31,5.18,14.7,14,18.95,19.51,12.53,16.24,1.8,34.68-18.74,32.77-38.74-3.61-79.39-13.75-118.25-18.75-4.22-.54-15.57-2.56-18.79-2.1-4.42.64-6.42,6.07-9.18,8.86-21.9,22.13-43.48,44.87-64.73,67.75-8.84,5.17-18.09,6.4-26.59-.22-7.86-6.12-14.88-33.52-20.2-43.8-1.04-2-2.17-5.07-4.91-4.25l-403.3,205.8c-22.81,9.82-42.41-15.12-22.58-32.58l215.9-140.1-2.27-1.28-119.48,31.53c-16.61,4.72-34.21-14.31-23.11-29.1,8.55-11.4,29.87-14.62,42.13-20.87,1.11-.56,2.45-1.47,2.73-2.76-6.12-.19-12.3.43-18.37,1.12-23.04,2.61-46.09,7.59-69.14,9.86-9.54.94-22.43,3.21-30.42-2.55-9.36-6.73-9.26-22-.54-29.41s43.55-13.17,56.51-16.49c48.88-12.5,97.76-25.06,146.71-37.28l25.26-1.25v2.98s-216.79,53.74-216.79,53.74c-17.86,5.11-13.08,26.47,5.27,24.26l160.51-21.98c.63,2.56-1.65,2.33-3.33,3.12-24.48,11.54-51.69,20.44-76.64,31.4-9.27,4.07-22.46,7.2-18.57,20.51s25.25,4.78,34.55,2.47c46.64-11.55,97.48-29.33,143.93-38.06,1.68-.32,3.33-.64,5.05-.44l-257.95,168.76c-8.16,14.01,6.4,24.28,18.99,16.77l410.96-209.12c.91.55,1.24,1.48,1.75,2.33,7.71,12.99,11.88,36.5,20.42,48.58,5.43,7.68,12.71,6.61,19.49,1.33l70.92-75.57,4.3-2.53,143.79,22.08c10.38-.49,15.53-9.87,10.17-18.98l-35.69-36.28-.16-3.37c8.89-1.65,15.53,7.84,21.41,13.58Z"/>
  <path class="st0" d="M1228.06,504.01c2.72,5.85,5.76,11.7,9.6,16.91,2.93,3.98,7.53,7.23,10.28,10.72,6.21,7.87,7.99,13.73,16.66,21.33,2.92,2.56,6.65,2.22,5.48,7.02l-59.91-.09c-.33-2.04-.2-4.14.15-6.17,1.88-11.01,9.77-34.03,13.81-45.18.45-1.25,2.17-6,3.92-4.55Z"/>
  <path class="st0" d="M1450.42,551.66c1.15,1.15,9.77,5.22,3.17,6.35-5.87,1.01-15.53-.28-22.05-.05-12.82.46-23.1.6-35.96.24-1.99-.06-15.11,2.27-7.44-3.66,6.21-4.8,13.34-8.29,19.46-13.57,5.43-4.68,10.34-12.05,15.47-16.44.77-.66,1.22-1.64,2.56-1.59,2.52-.23,9.46,8.13,11.43,10.58,4.51,5.61,8.06,12.8,13.36,18.13Z"/>
  <path class="st0" d="M235.08,573l-.28-4.68c3.59-4.82,22.4-42.58,24.78-43.34.48-.15,2.52-.32,2.51.55-.41,6.65-6.79,18.74-3.04,24.78,1.88,3.02,16.17,1.94,17.61,3.68.16,6.8-3.41,11.99-1.58,19.02h-40Z"/>
  <path class="st0" d="M1669.08,431c1.42,1.27-9.47,34.64-11.42,36.08-2.56,2.21-5.38-.03-8.09-.07s-6.46,1.71-9.55-.56c.43-4,1.44-8.62,2.53-12.47,1.44-5.1,4.01-14.82,5.77-19.23.51-1.27,3.36-3.74,4.26-3.74h16.5Z"/>
  <path class="st0" d="M1578.08,557c2.68-6.17,9.89-8.01,15.33-12.17,2.42-1.85,13.34-13.46,14.32-13.63,1.12-.19,2.19.95,3.35.8-3.48,11.39,10.07,10.47,17.57,11.93,1.29,1.78-1.72,11.59-4.08,13.06h-46.5Z"/>
  <path class="st0" d="M1220.7,434.05c6.82,1.76,1.88,11.76,1.39,17.46-1.09,12.7-1.18,25.53,1.6,38.03-.55,3.57-16.62,3.91-16.62,0,5.83-7.46.42-16.15,1.62-22.66,1.12-6.07,4.89-13.88,6.89-19.89,1.44-4.33.65-10.09,5.12-12.94Z"/>
  <path class="st0" d="M650.49,550.59c2.07,2.31,4.28,4.79,6.58,6.92,3.47,3.2,9.96,4.96,9,10.49-10.17-2.37-21.27,2.95-31-2.02l7.01-22.98c4.74-.53,5.91,4.81,8.4,7.59Z"/>
  <path class="st0" d="M309.08,442l-9.08,32.41c-2.01,2.88-13.95,4.63-12.41-.38,6.45-8.35,10.14-20.71,16.1-28.92,1.43-1.97,2.59-3.54,5.38-3.11Z"/>
  <path class="st2" d="M246.08,295l-9.55,31.95c-4.62,6.28-21.5-5.22-26,12l-12.45,121.04,3.43-1.06,63.33-119.66c5.02-11-4.55-10.88-12.78-11.28-1.22-1.14,8.31-30.83,9.48-32.02,2.78-2.84,70.18-.68,79.53-1.98,1.29,1.31-7.13,30.57-8.93,32.58-1.62,1.8-9.23,2.38-12.36,3.64-8.31,3.34-13.02,11.3-17.52,18.48-35.49,56.69-64.46,120.43-99,178l-3.7,4.3h-64c-1.35,0-1.59-3.2-1.54-4.45.99-26.4,7.23-54.84,8.56-81.55.09-1.71,1.24-2.55-1.02-3.98l-48.49,89.49c-15.48,1.19-31.05.11-46.55.45-4.39.1-18.81,3.39-20.97-.95-1.33-2.69,1.23-15.48,1.5-19.52,3.17-48.94,7.44-100.24,9-149,.28-8.81.76-24.97-8.29-29.69-3.1-1.61-8.02-.92-8.75-4.3-.12-1.52,7.69-27.02,8.81-29.24,2.9-5.74,10.77-2.15,15.75-2.19,23.91-.19,55.79-3.88,79.03-1.13,1.08.13,2.3,0,3.03,1,.81,1.04.2,2.02,0,3.08-.61,3.28-7.38,25.11-8.71,27.35-2.44,4.12-8.92,2.28-12.86,5.14-2.07,1.5-4.34,6.69-4.78,9.22-3.18,18.54-2.14,41.63-3.25,60.75-1.04,17.96-3,35.98-4.03,53.97-.06,1.12-.74,6.66,1.53,5.54l56.23-105.77c4.2-14.71.5-27.25-16.72-26.22-1.27-1.26,7.74-30.54,10.5-34h102.5Z"/>
  <path class="st2" d="M492.08,468h16c1.35,3.23.05,5.64-.74,8.77-8.2,32.21-27.15,59.25-63.8,57.27-49.67-2.68-23.2-50.89-17.95-79.03,3.04-16.29,3.36-21.59-15.01-22.44-2.31-.11-14.54.15-15.84.59-1.89.65-2.31,3.43-2.94,5.06-4.6,11.92-10.81,33.98-13.42,46.58-.64,3.06-3.07,13.2,2.2,13.2h15c.51,0,2.1,1.83,2.05,3.06-.12,2.95-5.64,21.48-7.05,24.94-.48,1.17-.78,2.38-2.16,2.84l-100.87,1.22c-1.5.26-1.8-.73-1.94-1.97-.16-1.44,6.69-26.83,7.7-27.86,4.31-2.34,9.51-.7,14.18-1.32,9.16-1.22,11.24-8.47,13.87-16.13,14.4-41.85,23.28-88.01,36.64-130.44,2.14-11.07-18.71-4.99-19.85-8.97-.38-1.33,6.1-24.26,7.18-26.62.57-1.25,1-2.13,2.44-2.56l126.79-.18c57.67-.12,50.4,62.29,16.01,88.99-6.8,5.28-15.55,7.51-22.48,12.5,5.05,2.81,11.26,3.98,14.4,9.58,7.73,13.78-7.29,46.53-9.16,61.67-.49,3.97-1.39,10.54,4.15,10.26,7.84-.4,12.12-22.84,14.59-29.01ZM403.58,403c3.16.94,17.37,0,22,0,2.02,0,11.69-3.76,13.83-5.17,9.94-6.51,17.73-26.93,16.67-38.34-1.4-15.05-16.74-12.22-27.46-12.47-3.49-.08-8.24-2.88-11.54.72l-14.81,52.03c-.51,1.14.31,2.92,1.31,3.22Z"/>
  <path class="st2" d="M979.58,399c1.32-.42,3.16-7.42,3.77-9.23,2.64-7.84,11.98-35.86,10.71-42.25s-10.68-2.56-11.02-7.02c-.11-1.42,6.98-26.59,8.18-27.36l92.86-1.14c1.04,1.06-6.81,27.28-7.94,28.56-3.5,3.97-16.96-2.08-23.25,7.75-6.62,10.33-14.14,42.15-18.31,55.69-8.53,27.74-16.52,55.69-24.43,83.61-.44,8.57,13.4,6.08,18.93,6.39.94.96-5.59,22.98-6.7,25.81-.42,1.06-1.81,4.19-2.81,4.19h-90.5c1.08-5.54,4.77-24.98,7.93-28.57,2.08-2.36,5.53-1.07,8.33-1.67,5.61-1.19,6.65-4.46,8.9-9.1,4.61-9.52,13.31-38,15.38-48.62.46-2.37.62-4.65.45-7.05h-43.5c-2.47,1.72-2.84,4.59-3.76,7.24-3.57,10.27-14.25,42.23-14.67,51.42-.34,7.26,5.06,7.05,10.93,7.35,1.37,1.35-6.48,27.61-7.98,28.51l-92.02,1.48c-.19-1.73.1-3.36.46-5.05.56-2.65,6.66-22.59,7.48-23.51,2.77-3.14,5.85-.48,8.56-.64,11.65-.71,13.49-3.1,17.53-13.27,4.43-11.17,7.66-25.03,11.25-36.75,8.15-26.63,17.31-54.95,24.23-81.77.99-3.85,4.32-14.42,2.42-17.36-2.57-5.29-16.59-.32-17.84-4.28-.79-2.5,6.31-26.29,9.42-29.36h90c.92.72,1.3,1.04,1.33,2.28.03,1.37-7.1,25.04-7.92,26.14-2.51,3.37-10.27-.68-15.75,7.25-4.5,6.53-11.78,33.2-13.88,42.12-.64,2.72-1.63,5.33-1.29,8.21h44.5Z"/>
  <path class="st2" d="M838.08,413l-8.14,29.86c-10.53.53-16.66-1.75-21.72,8.78-10.06,20.97-13.41,50.82-22.08,72.92l-2.75,3.25-27.68.06c-2.39-.81-2.19-8.23-2.77-10.71-.16-.26-1.95-.81-2.39-.77-1.18.1-17.32,8.96-21.21,10.38-40.42,14.76-86.48,5.37-91.99-43.54-7.36-65.32,40.37-159.28,108.71-173.73,20.74-4.38,45.6-4.31,61.64,11.44,4.29-.28,6.74-10.93,9.87-10.93h23c2.94,0,.59,7.58.21,9.21-5.09,21.63-13.4,48.3-20.44,69.56-1.02,3.07-1.71,6.71-3.77,9.23h-27c-2.69,0,.42-12.96.54-15.46.93-19.14.86-45.17-25.55-42.54-29.87,2.97-45.84,54.68-52.99,79.01-5.05,17.2-15.99,56.11-8.01,72.01,5.65,11.26,25.87,12.23,34.05,4.03,5.48-5.49,14.33-33.52,15.38-41.62,1.54-11.92-4.98-9.23-14.25-9.38-.91-.22-1.29-1.87-1.33-2.68-.24-5.59,6.43-22.68,9.16-28.37h91.5Z"/>
  <path class="st2" d="M1664.08,306c1.1,1.09-7.57,28.01-8.94,29.56-3.19,3.63-21.94-1.8-24.24,9.76-12.73,35.32-22.42,71.77-34.81,107.19-15.61,44.64-40.76,71.03-90.53,74.47-51.23,3.54-77.22-14.6-62.75-67.75,10.24-37.6,25.58-73.93,35.26-111.75,2.41-15.09-13.04-3.92-18.8-11.12l8.92-28.25,103.85.37-10.39,28.6c-2.14,2.07-4.62-.15-6.97,0-9.41.65-16.4,1.59-19.46,11.55-10.08,34.13-23.99,68.37-33.45,102.55-5.43,19.62-12.97,44.38,16.85,42.84,22.6-1.16,32.93-16.3,40.48-35.52,14.11-35.93,23.35-76.48,35.87-113.15,2.28-10.24-12.28-8.09-18.89-8.37-.09-1.11-.01-2.17.23-3.27.59-2.66,7.83-24.29,8.71-25.3,2.36-2.68,17.02-1.19,21.61-1.39,2.37-.11,4.55-1.01,6.92-1.08,16.81-.52,33.73.46,50.54.05Z"/>
  <path class="st2" d="M1458.08,305l-28.5,88h-28c-3,0,.36-12.19.49-14.51.85-15.23,2.5-40.48-17.74-43.22-16.83-2.28-30.8,10.11-39.47,23.01-16.02,23.84-39.34,92.14-35.69,120.14,2.47,18.9,20.77,20.84,35.89,15.06,22.42-8.57,35.46-33.83,44.52-54.48h26.5c-12.32,42.34-45.08,81.34-90.64,87.86-134.93,19.31-77.74-154.67-10.69-202.69,29.72-21.28,75.5-32.39,106.83-8.5l10-10.67h26.5Z"/>
  <path class="st2" d="M1825.08,386h-24c2.74-13.85,11.42-42.7-8.96-46.54-3.64-.69-11.29-1.68-13.5,1.59l-43.08,132.92-1.3,11.33c.25,1.45,4.35,3.7,5.33,3.7h18.5c-1.52,8.27-4.32,19.16-7.5,27-.48,1.18-.78,2.38-2.17,2.83l-106.88,1.21-3.37-1.67,8.88-27.92c10.34-1.6,25.48,2.24,29.75-10.25l45.2-140.11c-28.37-5.14-42.88,24.03-50.87,46.45l-23.01,1-1.86-2.86,25.99-78.52,177.87-.7-25.04,80.53Z"/>
  <path class="st2" d="M1070.08,392l23.96-79.54c9.47-1.1,19.08-.13,28.58-.42,38.47-1.15,77.42-1.38,115.91-2.09,10.62-.2,21.28.28,31.9,0l1.16,2.55-25.01,78.5h-22c-3.15,0,1.05-10.36,1.38-12.62,1.98-13.46,3.42-30.91-13.82-33.93-3.81-.67-9.78-1.8-11.93,2.18l-42.06,139.03c-1.32,3.74,3.41,7.35,6.43,7.35h17.5c-1.36,7.75-3.59,18.56-6.71,25.79-.71,1.66-.96,3.4-2.99,4.01l-108.31.19,8.24-28.75c2.77-3.28,19.49,1.32,25.71-3.8,3.51-2.89,7.67-17.65,9.32-22.68,13.02-39.53,23.28-80.08,36.22-119.65l-.59-3.02c-17.17-2.35-29.32,7.87-37.68,21.61-5,8.22-7.3,16.93-11.71,25.29h-23.5Z"/>
  <path class="st2" d="M660.58,314c1,.3,1.86,2.1,1.33,3.24l-8.06,26.53c-9.48,3.33-21.75-2.85-25.25,10.25-11.31,40.78-25.38,81.04-36.02,121.98-4.68,17.99-7.39,22.25,15.5,21,.09,1.76.05,3.51-.25,5.26-.5,2.94-5.78,21.2-6.92,23.08-.75,1.22-.83,1.4-2.32,1.68-4.47.84-12.01-.29-17.05-.05-2.67.13-5.07,1-7.91,1.09-25.13.77-50.42-.67-75.55-.05l8.47-29.03c1.69-1.72,8.56-.82,11.75-1.25,11.28-1.54,12.59-6.1,16.07-15.93,14.42-40.74,23.26-86.04,36.61-127.39,1-5.65-.54-8.75-6.37-9.42-2.92-.33-11.52,1.3-12.44-1.62-.48-1.52,5.69-23.21,6.86-25.92.39-.9,1.85-3.44,2.56-3.44h99Z"/>
  <path class="st2" d="M339.08,653l25.26-61.24c1.71-5.51,15.37-4.55,19.12-2.63l37.1,36.85c22.47-10.41,43.42-25.7,65.51-36.5,3.5-1.71,5.41-3.12,9.47-3.53,2.57-.26,11.6-.91,11.4,2.34l-27.83,62.22-12.52,1.51-2.06-.98-.41-2.44,18.98-45.61-68.46,36.03c-6.2-2.95-33.7-35.07-37.05-35.09s-18.44,43.99-22.99,49.06h-15.5Z"/>
  <path class="st2" d="M716.58,646c-3.39-.68-7.91-6.83-11.98-6.9-23.93,7.74-49.57,13.61-74.9,9.77-8.58-1.3-23.06-4.57-22.71-15.39.54-16.43,36.01-25.57,49.08-28.5.09-1.1.17-2.02-.48-3-2.25-3.44-17.33-10.87-20.84-14.94-.97-1.13-.76-1.65-.68-3.04,6.82-.24,13.72.3,20.55.04,18.84-.72,43.49-2.98,62.02-1.1,4.57.46,4.41,1.44,6.96,5.08l-1.15,1.85-53.88,1.14-2.48,1.49,44.75,33.31c7.55,1.87,18.2-12.93,23.95-.29-.53,3.85-15.19,5.88-12.7,9.47,2.75,1.83,10.5,5.98,12.33,7.97,1.01,1.1.68,1.7.66,3.05-5.46-.75-13.42,1.02-18.5,0ZM661.83,611.26c-8.14.99-33.69,9.38-36.32,17.69-2.46,7.75,5.31,10.41,11.35,11.77,18.48,4.17,40.58-1.3,58.21-7.23,2.1-1.59.7-2.23-.5-3.48-1.37-1.43-24.07-17.87-25.52-18.47-2.48-1.01-4.69-.59-7.21-.28Z"/>
  <path class="st2" d="M960.08,643l18.57-44.95-1.06-3.02-66.03,36.07-34.86-35.05c-1.76.37-3.95,5.55-4.78,7.28-6.29,13.02-11.14,27.2-17.07,40.42l-15.76,1.25c-.31-2.54.69-4.69,1.52-6.98,6.65-18.43,17.54-36.95,24.58-55.42,2.2-2.74,12.84-3.55,16.28-1.47l34.08,35.93,2.96.96,71.17-38.94,11.98.88.04,2.07-27.11,60.96h-14.5Z"/>
  <path class="st2" d="M234.88,589.29c21.78-.67,62.22-2.96,80.54,8.87,23.7,15.3.45,37.2-16.66,45.01-35.25,16.1-78.22,10.86-116.02,11.67l-1.52-2.17,26.35-61.68,2.01-.99c8.46.56,16.9-.44,25.3-.7ZM202.08,646.99c29.08-.88,66.28,3.99,91.92-12.58,8.52-5.5,18.66-18.05,9.63-27.46-14.57-15.18-60.11-8.5-79.84-9.74l-3.47,3.53c-3.66,14.04-13.83,28.76-17.76,42.24-.39,1.35-.65,2.62-.47,4.02Z"/>
  <path class="st2" d="M1657.08,572l-.78,5.72-28.45,59.55c-3.37,1.65-6.97.26-9.92-1.63l-62.23-44.56-23.13,46.92h-15.5l28.99-64.51,9.36.67,63.17,45.65,23.98-47.8h14.5Z"/>
  <path class="st2" d="M130.09,617c.31,3.11-.99,7.3-4.52,7.97l-51.25.68c-1.06.45-9.44,19.68-9.22,20.81.24,1.27,2.34,1.45,3.45,1.58,22.95,2.63,56.86.01,81.09,0,6.72,0,12.78-2.66,5.46,7.45-28.48,1.35-57.05-.07-85.54.46-2.36.04-4.55,1.01-6.92,1.08-3.08.09-17.75.87-18.5-1.65l27.18-63.73,104.12-1.51,1.59,1.42c-.59,2.59-1.35,5.97-4.46,6.4l-87.49,1.51c-.87.53-6.65,13.7-6.82,15.26s-.23,2.5,1.49,3.1l50.35-.85Z"/>
  <path class="st2" d="M1755.08,598l-2.67,7.04-52.66,1.12c-1.75.6-11.05,21.4-9.66,22.84l88.5-1c4.25.55,1.73,5.42-.48,7.51l-108.04,1.01-.77-2.79,28.8-61.24,104-1.49-2.25,6.73-88.08,2.42c-1.93.66-8.06,14.72-7.66,17.84h51Z"/>
  <path class="st2" d="M1350.08,575c2.43,2.48-8.3,19.12-8.84,22.73-.25,1.66-.13,2.39,1.47,3.19l74.68-1.12c4.76-1.43,9.61-22.18,13.27-24.73,3.32-2.32,11.3-.52,15.43-1.08l-.48,5.03-27.51,59.49c-2.71.59-15.52,1.48-16.02-1.04,1.14-6.14,12.38-23.25,12.06-27.98-.07-1.1-.48-1.84-1.52-2.24l-73.1.69c-1.74-.12-2.34.38-3.34,1.66-5.6,7.19-7.69,23.34-14.61,30.39h-14.5l28.5-65h14.5Z"/>
  <path class="st2" d="M1136.08,641h-16.5l-9.75-15.74c-4.87-3.01-10.41-.3-15.21-.21-11.65.22-52.98-2.1-60.44,1.56-11.98,5.88-22.13,22.83-38.08,14.9l86.65-61.33c4.86-3.36,11.09-2.12,16.64-1.97l35.91,59.09.78,3.72ZM1102.98,616.91c.24-.98.86-1.85.55-2.91-.37-1.26-12.5-21.25-13.57-22.37-.69-.72-.96-1.82-2.36-1.69l-36.51,25.57c-1.03,4.91,15.58,1.52,18.45,1.45,11.13-.3,22.32.39,33.43-.05Z"/>
  <path class="st2" d="M1282.03,623.07l-.06,2.82c-24.55,12.75-53.68,18.07-81.37,16.1-18.63-1.32-54.78-11.81-37.35-37.32,19.25-28.17,82.76-35.17,113.05-26.38,3.28.95,22.24,7.86,16.77,12.21-1.02.81-11.11,3.66-12.47,3.52-1.51-.16-6.74-5.18-9.52-6.5-21.4-10.19-73.92-4.14-89.52,15.47-15.38,19.35,6.86,29.72,23.99,31.06,19.94,1.56,37.88-1.37,56.21-8.86,8.67-3.54,9.74-7.74,20.27-2.11Z"/>
  <path class="st2" d="M1504.08,573l-.47,5.03-26.67,58.33c-1.48,3.72-15.27,3.32-16.44,1.71l.03-4.09c10.62-17.18,16.23-40.78,26.35-57.67.76-1.26,1.52-2.39,2.7-3.3h14.5Z"/>
  <path class="st0" d="M403.58,403c-1-.3-1.83-2.08-1.31-3.22l14.81-52.03c3.3-3.61,8.05-.8,11.54-.72,10.73.25,26.06-2.58,27.46,12.47,1.06,11.4-6.73,31.83-16.67,38.34-2.14,1.4-11.81,5.17-13.83,5.17-4.63,0-18.84.94-22,0Z"/>
  <path class="st0" d="M661.83,611.26c2.52-.31,4.73-.73,7.21.28,1.46.6,24.16,17.04,25.52,18.47,1.2,1.26,2.6,1.89.5,3.48-17.63,5.93-39.73,11.4-58.21,7.23-6.04-1.36-13.8-4.02-11.35-11.77,2.63-8.31,28.18-16.7,36.32-17.69Z"/>
  <path class="st0" d="M202.08,646.99c-.18-1.4.08-2.68.47-4.02,3.93-13.47,14.1-28.2,17.76-42.24l3.47-3.53c19.72,1.24,65.27-5.44,79.84,9.74,9.03,9.41-1.11,21.96-9.63,27.46-25.64,16.57-62.84,11.7-91.92,12.58Z"/>
  <path class="st0" d="M1102.98,616.91c-11.12.44-22.31-.26-33.43.05-2.87.08-19.49,3.46-18.45-1.45l36.51-25.57c1.4-.13,1.67.97,2.36,1.69,1.07,1.12,13.2,21.11,13.57,22.37.31,1.07-.31,1.93-.55,2.91Z"/>
</svg>